<?xml version="1.0" encoding="UTF-8" standalone="no"?>
<svg
   version="1.0"
   width="1024px"
   height="1024px"
   viewBox="0 0 1024 1024"
   preserveAspectRatio="xMidYMid meet"
   id="svg18"
   sodipodi:docname="beer.svg"
   inkscape:version="1.3.2 (091e20e, 2023-11-25)"
   inkscape:export-filename="beer.png"
   inkscape:export-xdpi="96"
   inkscape:export-ydpi="96"
   xml:space="preserve"
   xmlns:inkscape="http://www.inkscape.org/namespaces/inkscape"
   xmlns:sodipodi="http://sodipodi.sourceforge.net/DTD/sodipodi-0.dtd"
   xmlns:xlink="http://www.w3.org/1999/xlink"
   xmlns="http://www.w3.org/2000/svg"
   xmlns:svg="http://www.w3.org/2000/svg"><defs
     id="defs18"><linearGradient
       id="linearGradient20"
       inkscape:collect="always"><stop
         style="stop-color:#fff5dd;stop-opacity:1;"
         offset="0"
         id="stop20" /><stop
         style="stop-color:#ffe3aa;stop-opacity:1;"
         offset="1"
         id="stop21" /></linearGradient><linearGradient
       id="linearGradient18"
       inkscape:collect="always"><stop
         style="stop-color:#fbaa1e;stop-opacity:1;"
         offset="0"
         id="stop18" /><stop
         style="stop-color:#fcbd1d;stop-opacity:1;"
         offset="1"
         id="stop19" /></linearGradient><linearGradient
       id="linearGradient7"
       inkscape:collect="always"><stop
         style="stop-color:#212121;stop-opacity:1;"
         offset="0"
         id="stop7" /><stop
         style="stop-color:#151515;stop-opacity:1;"
         offset="1"
         id="stop8" /></linearGradient><filter
       inkscape:label="Tinfoil"
       inkscape:menu-tooltip="Metallic foil effect combining two lighting types and variable crumple"
       inkscape:menu="Bumps"
       height="1.015629"
       width="1.015629"
       x="-0.0078145177"
       y="-0.0078145177"
       style="color-interpolation-filters:sRGB"
       id="filter18"><feBlend
         mode="normal"
         in2="result16"
         id="feBlend18" /><feDisplacementMap
         in2="result5"
         xChannelSelector="R"
         scale="0"
         id="feDisplacementMap18"
         yChannelSelector="A" /></filter><inkscape:path-effect
       effect="offset"
       id="path-effect2"
       is_visible="true"
       lpeversion="1.2"
       linejoin_type="miter"
       unit="mm"
       offset="-7.3908826"
       miter_limit="4"
       attempt_force_join="false"
       update_on_knot_move="true" /><linearGradient
       xlink:href="#linearGradient439"
       id="linearGradient432"
       gradientUnits="userSpaceOnUse"
       x1="-2375.5129"
       y1="1403.6593"
       x2="-1694.5388"
       y2="778.37189" /><linearGradient
       id="linearGradient439"><stop
         style="stop-color:#3e5159;stop-opacity:1;"
         offset="0"
         id="stop438" /><stop
         style="stop-color:#5e8291;stop-opacity:1;"
         offset="1"
         id="stop439" /></linearGradient><linearGradient
       xlink:href="#linearGradient395"
       id="linearGradient433"
       gradientUnits="userSpaceOnUse"
       x1="-2299.3228"
       y1="921.19049"
       x2="-1983.1794"
       y2="1274.9839" /><linearGradient
       id="linearGradient395"><stop
         style="stop-color:#c1e3ee;stop-opacity:1;"
         offset="0"
         id="stop395" /><stop
         style="stop-color:#344c56;stop-opacity:1;"
         offset="1"
         id="stop396" /></linearGradient><filter
       inkscape:label="Tinfoil"
       inkscape:menu-tooltip="Metallic foil effect combining two lighting types and variable crumple"
       inkscape:menu="Bumps"
       height="1.015629"
       width="1.015629"
       x="-0.0078145177"
       y="-0.0078145177"
       style="color-interpolation-filters:sRGB"
       id="filter18-0"><feBlend
         mode="normal"
         in2="result16"
         id="feBlend18-6" /><feDisplacementMap
         in2="result5"
         xChannelSelector="R"
         scale="0"
         id="feDisplacementMap18-2"
         yChannelSelector="A" /></filter><inkscape:path-effect
       effect="offset"
       id="path-effect2-6"
       is_visible="true"
       lpeversion="1.2"
       linejoin_type="miter"
       unit="mm"
       offset="-7.3908826"
       miter_limit="4"
       attempt_force_join="false"
       update_on_knot_move="true" /><linearGradient
       inkscape:collect="always"
       xlink:href="#linearGradient7"
       id="linearGradient16"
       x1="-297.3266"
       y1="1305.1008"
       x2="297.3266"
       y2="2094.9333"
       gradientUnits="userSpaceOnUse"
       gradientTransform="matrix(1.0057282,0,0,1.0057282,1526.7254,-1390.123)" /><linearGradient
       inkscape:collect="always"
       xlink:href="#linearGradient18"
       id="linearGradient19"
       x1="1249.1674"
       y1="78.782272"
       x2="1694.5913"
       y2="638.15906"
       gradientUnits="userSpaceOnUse"
       gradientTransform="matrix(1.0057282,0,0,1.0057282,-8.7454164,-1.4445896)" /><linearGradient
       inkscape:collect="always"
       xlink:href="#linearGradient20"
       id="linearGradient21"
       x1="1467.157"
       y1="78.782272"
       x2="1467.157"
       y2="229.43645"
       gradientUnits="userSpaceOnUse"
       gradientTransform="matrix(1.0057282,0,0,1.0057282,-8.7454164,-1.4445896)" /></defs><sodipodi:namedview
     id="namedview18"
     pagecolor="#505050"
     bordercolor="#ffffff"
     borderopacity="1"
     inkscape:showpageshadow="0"
     inkscape:pageopacity="0"
     inkscape:pagecheckerboard="1"
     inkscape:deskcolor="#505050"
     inkscape:zoom="3.1445312"
     inkscape:cx="415.96025"
     inkscape:cy="1015.5727"
     inkscape:window-width="1920"
     inkscape:window-height="1006"
     inkscape:window-x="1080"
     inkscape:window-y="290"
     inkscape:window-maximized="1"
     inkscape:current-layer="g17" /><g
     inkscape:groupmode="layer"
     id="layer3"
     inkscape:label="Layer 1"
     style="display:inline"><g
       id="g17"
       transform="matrix(1.4776497,0,0,1.4776497,-1743.9655,139.35507)"><path
         id="path2"
         style="fill:url(#linearGradient21);stroke:none;stroke-width:188.994;stroke-linecap:round;stroke-linejoin:round;paint-order:stroke fill markers"
         d="m 1431.1653,-73.726369 c -2.1606,-0.01531 -4.3511,0.06622 -6.571,0.252576 -41.8663,-0.941963 -74.9741,33.18312 -85.2752,71.6851732 -32.5012,-0.5869424 -76.4527,4.1009693 -86.8437,41.4145548 -12.9328,36.926883 -0.1675,83.037585 37.2656,100.004315 14.5259,5.98658 29.7854,13.84479 30.0579,31.85254 9.1317,31.15189 48.7797,54.572 77.5795,32.7791 18.3922,-8.41453 19.4437,-31.17657 29.9861,-44.99183 25.5408,0.76766 46.6405,-15.06532 63.8541,-32.06392 18.2978,11.79437 38.3679,26.45039 61.9955,19.81661 23.7137,0.0834 39.9898,-24.78304 64.5187,-17.73219 40.9135,9.46139 84.5893,-38.74337 62.2773,-77.458539 -10.8028,-22.062034 -35.4629,-31.858922 -58.3983,-32.990465 -15.8598,-20.0586263 -28.9653,-48.404085 -58.1218,-51.041705 -18.6664,-5.631971 -37.542,13.582061 -54.6867,5.286823 -19.4913,-24.331212 -45.2303,-46.583337 -77.638,-46.813043 z m 216.4965,213.560009 c -15.1417,3.75276 -31.2116,4.20094 -46.4036,0.7338 -6.8733,0.89238 -11.5232,7.40623 -17.8385,10.09907 -25.7009,14.60053 -60.6042,13.50425 -84.7182,-3.63444 -4.7772,-4.31538 -10.7316,-0.9029 -14.4792,2.92057 -11.6109,10.74348 -26.4141,17.95706 -42.2614,19.35533 -7.1576,-0.26229 -10.9123,6.39321 -12.2846,12.49455 -4.3172,13.83519 -13.923,25.60487 -26.1123,33.29888 -5.6519,4.22687 -1.1082,13.2865 5.5461,12.19146 72.654,1.6306 145.3467,1.91613 218.0158,1.25226 8.9633,-0.97405 18.9645,1.40021 27.1759,-2.99503 5.7225,-4.2324 2.0098,-12.65038 2.8968,-18.72256 -0.7712,-20.17941 0.1894,-40.5026 -2.0033,-60.58908 -0.6095,-3.61902 -3.6972,-6.71921 -7.5335,-6.40481 z m -354.9842,16.96116 c -7.5342,0.25364 -6.9609,9.22593 -7.3274,14.60556 -0.6844,16.5408 -2.4358,33.19193 -1.4556,49.71502 1.6703,6.77569 9.1537,8.21709 15.1373,7.80062 14.6488,0.33471 29.4188,0.63469 44.0015,0.0904 6.5198,-0.64124 6.3754,-10.27486 0.4758,-11.91761 -20.3349,-9.9226 -35.2765,-30.40195 -37.0316,-53.14606 -1.6457,-5.59205 -8.8055,-6.57553 -13.8,-7.14659 z" /><path
         id="path6"
         style="fill:url(#linearGradient19);stroke:none;stroke-width:47.2488;stroke-linecap:round;stroke-linejoin:round;paint-order:stroke fill markers"
         d="m 1690.5254,171.06803 c -5.731,-0.0374 -11.4551,-0.0364 -17.1686,0.0173 -0.8858,0.26873 -1.7717,0.53676 -2.6574,0.80559 -7.0406,5.73254 -11.8169,16.86977 -5.0302,24.64746 12.0922,13.54967 31.8926,13.60113 48.6023,14.66539 14.2123,1.27747 30.7543,0.70032 43.0789,9.76806 9.4581,8.27331 11.085,21.54693 10.8927,33.42516 0.3476,44.91659 0.5424,89.96067 -0.7631,134.78675 -1.573,17.78547 -16.2054,32.29184 -33.4424,35.5694 -15.7542,4.06303 -32.0639,1.5761 -47.7635,5.70823 -10.0057,3.02643 -13.6746,14.71562 -10.9633,24.03861 0.4974,6.02804 4.948,11.85289 11.475,11.35133 19.6112,0.1222 39.3339,0.18433 58.853,-1.8385 23.9312,-4.71022 44.0541,-22.36937 55.535,-43.41521 9.3761,-15.97046 7.0734,-35.16237 8.2845,-52.86558 0.5014,-46.09299 0.7338,-92.23331 -1.1314,-138.29622 -1.3509,-16.59058 -11.2144,-31.38364 -23.5441,-42.07391 -11.2855,-10.87695 -27.1862,-15.60333 -42.6295,-15.3181 -17.1849,-0.40739 -34.4355,-0.86367 -51.6279,-0.97574 z m -341.0274,68.93342 c -20.4092,0.41044 -40.9026,-0.68245 -61.2497,1.24161 -7.9449,2.09372 -5.5086,12.01037 -6.51,18.26659 -3.6278,80.19327 -6.7116,160.38194 -10.0192,240.58436 -0.8551,6.13693 1.5114,13.07689 8.089,14.8209 15.778,4.33912 32.4765,2.85533 48.6675,3.72751 105.9944,0.8267 211.9988,0.45123 317.9937,-0.20339 6.602,-0.71618 14.7132,1.31724 20.1743,-2.93919 3.5536,-5.96428 0.4302,-13.62558 1.1313,-20.28189 -2.7933,-69.79897 -6.9785,-139.42899 -8.7538,-209.22233 -1.0367,-11.88257 1.5626,-26.82205 -9.2842,-35.09616 -11.4522,-7.71484 -25.9781,-8.09266 -39.2795,-9.48359 -86.9728,-1.45196 -173.9761,-1.3411 -260.9594,-1.41442 z m 226.3283,42.13507 c 1.0921,-0.0352 2.1947,0.01 3.2968,0.13692 8.9605,-1.06578 20.008,4.29761 20.5546,14.21207 2.7744,40.87738 1.6635,82.47278 1.5339,123.69864 -0.5065,14.46336 0.2222,28.99951 -1.5368,43.28627 -4.4461,7.32462 -12.5368,12.87245 -21.4489,11.41645 -7.7663,-0.41999 -15.0341,-6.13169 -18.2918,-12.9997 -2.3684,-28.39108 -1.2499,-56.97753 -1.7588,-85.44926 -0.052,-27.47617 -0.053,-54.95271 -0.084,-82.42897 2.9574,-7.44771 10.0905,-11.62587 17.7348,-11.87242 z m -102.0873,0.57561 c 11.1461,0.61675 20.8003,10.66785 20.2047,22.04459 1.3861,51.84796 1.0566,103.73413 -1.2268,155.498 -0.378,8.29061 -9.0803,14.1733 -16.7499,15.06287 -6.6678,1.72824 -13.5092,-0.4046 -18.0432,-5.56068 -7.5433,-6.09459 -5.0734,-16.74669 -6.2693,-25.18585 -1.3754,-45.29263 -2.0442,-90.75337 -1.0635,-136.1347 0.6278,-7.71242 -0.4967,-17.45974 7.447,-21.92496 3.7598,-3.16131 8.6898,-3.95149 13.4544,-3.79529 0.7538,-0.0451 1.5035,-0.0451 2.2466,-0.004 z m -110.3959,1.02092 c 10.3593,-0.54982 21.3842,7.25515 21.0091,18.27591 2.2444,42.16904 1.9908,84.80401 1.2987,127.21874 -0.5758,11.82867 -0.1468,23.71935 -2.2039,35.33278 -5.7434,8.44791 -17.3302,13.59895 -27.2185,10.1629 -6.102,-3.09383 -12.1655,-8.54592 -11.2783,-16.07983 -3.4619,-51.51535 -3.992,-103.54171 -2.8607,-155.4302 -0.8548,-11.96524 9.6165,-20.63426 21.2536,-19.4803 z m 216.478,7.77006 c -8.3636,-0.18434 -14.5158,7.89581 -13.5448,15.94554 -0.4804,46.52546 -0.7014,93.10229 1.3055,139.59767 0.3113,6.64905 0.1654,15.83344 8.2247,17.94356 6.916,2.88913 16.2404,-1.56748 15.6597,-9.79865 2.3525,-35.49403 1.3075,-71.12754 1.3785,-106.68029 -0.6759,-16.88707 0.5926,-34.13109 -2.9538,-50.74127 -1.2704,-4.29205 -5.8755,-6.38785 -10.0698,-6.26656 z m -107.4619,0.93985 c -0.4109,-0.0124 -0.8217,-0.0115 -1.2323,0.007 v 0.001 c -7.6097,-0.22548 -13.3341,7.06831 -12.2102,14.38356 -0.4113,47.58982 -0.7516,95.24065 1.7295,142.78278 -0.095,6.61286 1.9102,15.58643 9.982,16.12369 8.4361,0.63914 17.0587,-7.60804 15.1481,-16.27921 0.4799,-47.17023 0.2472,-94.37768 -1.5434,-141.51591 0.073,-6.59164 -2.4902,-15.61528 -10.6441,-15.42712 -0.4093,-0.0377 -0.819,-0.0633 -1.2296,-0.0758 z m -107.3212,0.83616 c -0.6604,-0.0386 -1.3201,-0.033 -1.9688,0.0173 -6.5439,-0.39173 -11.4637,5.40184 -11.0362,11.71157 -2.5186,47.56767 -1.727,95.25364 -1.0608,142.86387 -0.188,5.97763 0.082,13.33472 6.6174,15.96682 6.8029,4.68255 18.0936,0.59595 18.0913,-8.32173 2.7384,-31.61423 1.5549,-63.43298 1.8464,-95.1349 -0.5291,-19.78255 0.7068,-39.80029 -2.3955,-59.40332 -0.8276,-4.96132 -5.4701,-7.42943 -10.0938,-7.69959 z m 210.3643,233.57867 c -93.2208,0.68108 -186.4808,1.36429 -279.626,5.43307 -7.8399,0.89749 -16.323,-0.0539 -23.5454,3.48288 -3.7918,5.74281 -0.3173,13.10695 1.8955,18.92196 9.0539,18.15249 30.1921,28.54989 50.1127,26.80101 103.8133,0.32536 207.6367,0.27882 311.4439,-0.91458 7.3476,0.54118 14.2153,-2.78654 18.5286,-8.7139 8.257,-9.64139 16.0065,-21.49773 16.1874,-34.58434 -0.2667,-7.70821 -8.9417,-9.2515 -15.0762,-9.27222 -26.5973,-1.57568 -53.2893,-1.08036 -79.9205,-1.15388 z" /><path
         style="fill:url(#linearGradient16);stroke:none;stroke-width:1.00572"
         d="m 1304.5262,597.25466 c -22.3683,-2.62556 -46.7049,-26.74774 -50.2653,-49.82256 -0.8221,-5.32766 -0.5677,-19.11066 1.0839,-58.75536 1.1867,-28.48724 2.8382,-68.99296 3.67,-90.01268 0.8317,-21.01971 2.1789,-52.92644 2.9937,-70.90383 0.815,-17.97739 2.1774,-50.78927 3.0282,-72.9153 0.8505,-22.12602 2.2215,-54.89295 3.0466,-72.81523 0.8253,-17.92237 1.38,-32.64844 1.2327,-32.72448 -76.5326,-39.55841 -39.8783,-168.414219 47.9406,-168.532191 8.1126,-0.01106 8.1126,-0.01106 10.8442,-7.301788 30.1996,-80.606201 146.4164,-92.228701 191.3231,-19.133778 0.069,0.112944 3.9561,-1.107005 8.6371,-2.71084 38.753,-13.277724 80.7202,4.99495 99.5756,43.3555355 3.2712,6.6552055 3.2712,6.6552055 10.9156,7.2134851 64.5677,4.7156586 91.0579,87.8858614 40.317,126.5823564 -23.2744,17.7498 -10.5326,26.88192 37.9796,27.22054 45.0064,0.31399 45.0064,0.31399 52.3554,2.9848 25.884,9.40678 46.6667,31.50012 54.2244,57.64392 2.1581,7.46532 3.284,168.1487 1.2848,183.36346 -4.6434,35.33958 -34.7029,70.3878 -67.8868,79.15343 -7.4738,1.97425 -30.3082,3.42169 -54.6639,3.46523 -18.4576,0.0332 -18.4576,0.0332 -17.8395,13.3589 3.0687,66.1738 -2.5885,83.32296 -32.3371,98.02602 -7.3192,3.6175 -319.4629,6.54648 -347.4599,3.26036 z m 337.6836,-22.53858 c 12.8922,-5.38668 29.0602,-37.61996 20.3298,-40.53014 -14.4625,-4.82086 -387.1373,0.8074 -386.681,5.83976 1.8053,19.9105 19.3139,34.99592 41.9676,36.15966 27.4857,1.41194 320.6661,0.0844 324.3836,-1.46928 z m 20.1716,-62.16264 c 0.7121,-0.71236 -0.4195,-31.93912 -2.5964,-71.64878 -2.9028,-52.95371 -5.7531,-123.2333 -6.6787,-164.688 -0.6906,-30.92614 -0.6906,-30.92614 -183.0712,-30.92614 -182.3807,0 -182.3807,0 -182.3849,2.76574 -0.01,4.32977 -2.8627,75.67602 -4.4993,112.39014 -0.8136,18.25396 -1.9572,45.63492 -2.5415,60.84656 -1.1367,29.59888 -2.5785,61.50872 -3.6492,80.76278 -0.6601,11.87042 -0.6601,11.87042 191.9989,11.56588 105.9625,-0.16756 193.0024,-0.6482 193.4223,-1.06818 z m -307.434,-32.29584 c -5.4132,-1.93492 -10.4719,-6.2139 -14.1856,-11.99925 -3.9927,-6.21973 -7.0483,-161.75258 -3.4053,-173.33455 7.5764,-24.08789 45.4304,-22.76012 52.2564,1.83294 2.9159,10.50524 2.7618,163.08718 -0.1703,168.57826 -6.7438,12.62984 -22.2019,19.31692 -34.4952,14.9226 z m 14.738,-22.22842 c 3.4607,-3.4607 3.4906,-153.49654 0.031,-157.31842 -2.56,-2.8283 -8.8813,-2.88533 -11.6614,-0.1052 -2.5097,2.5095 -3.2369,152.96182 -0.7544,156.07344 3.4607,4.3376 8.8134,4.92122 12.3845,1.35018 z m 94.3456,22.38872 c -5.895,-1.89891 -12.7292,-8.03928 -15.9452,-14.3267 -3.9186,-7.66102 -5.4735,-165.36494 -1.7138,-173.82513 10.6297,-23.91933 47.874,-19.1023 52.8146,6.83091 2.179,11.43734 1.0593,161.09553 -1.2437,166.2344 -5.5984,12.49266 -20.8713,19.28715 -33.9119,15.08652 z m 13.8253,-22.88343 c 2.9819,-2.98189 2.9819,-2.98189 2.3201,-78.69823 -0.7134,-81.63094 -0.5543,-79.47828 -5.9723,-80.83812 -3.5948,-0.90224 -7.2787,0.27948 -8.9621,2.87477 -2.8627,4.41384 -0.9093,154.37647 2.0495,157.33531 3.1804,3.18032 6.9512,2.93986 10.5648,-0.67373 z m 97.5838,23.00533 c -8.5132,-1.64346 -17.44,-8.79318 -21.1422,-16.93314 -1.9868,-4.36868 -3.1245,-164.53574 -1.2148,-171.04692 6.5667,-22.39032 45.6604,-22.01298 52.0896,0.50286 2.6124,9.14932 2.8968,165.1983 0.3118,171.20714 -5.1181,11.89726 -17.6215,18.66832 -30.0444,16.27006 z m 9.686,-21.58906 c 3.8528,-2.69858 3.4528,-157.24138 -0.4148,-160.28372 -4.4242,-3.48012 -10.3755,-2.02996 -12.4755,3.03992 -2.9793,7.19236 -0.7697,153.69136 2.3585,156.38219 3.2422,2.78859 7.3058,3.12107 10.5318,0.86161 z m 164.9121,-1.1925 c 24.4069,-8.10064 43.9822,-28.01385 51.7002,-52.59244 3.6953,-11.76832 3.7093,-171.10826 0.016,-183.00704 -6.9463,-22.37876 -24.7771,-39.24622 -46.3139,-43.81122 -6.2248,-1.31942 -81.4399,-2.25726 -82.6761,-1.03088 -13.8748,13.7636 3.048,27.62977 34.0805,27.92505 47.177,0.44896 61.9035,8.66636 66.52,37.11821 2.181,13.44196 1.374,145.52706 -0.9348,153.00214 -8.4594,27.3882 -27.2423,38.00054 -67.2531,37.99822 -23.5052,-10e-4 -29.356,6.68418 -22.7332,25.97656 0.8405,2.44904 59.5935,1.07693 67.5944,-1.5786 z m -14.5428,-49.97433 c 6.7604,-3.42319 13.139,-9.91065 15.9154,-16.18729 1.8758,-4.24066 1.9376,-7.03638 1.6703,-75.60622 -0.3726,-95.62686 3.3344,-88.803 -48.2436,-88.803 -35.2005,0 -31.545,-7.62583 -28.9266,60.3437 2.0857,54.13815 3.9724,109.42574 3.9749,116.4767 0,8.45214 40.8919,11.22866 55.6096,3.77611 z M 1343.9752,223.64614 c 0,-0.19562 -2.8685,-1.76777 -6.3743,-3.4936 -18.713,-9.21237 -35.8663,-34.18792 -35.8663,-52.22174 0,-3.26771 -1.7236,-4.49158 -8.1413,-5.78062 -2.6096,-0.52418 -2.6096,-0.52418 -3.2904,18.93062 -0.3744,10.70014 -0.9659,24.78889 -1.3147,31.30842 -0.634,11.85372 -0.634,11.85372 27.1765,11.73313 15.2956,-0.0664 27.8105,-0.2806 27.8105,-0.47621 z m 307.2268,-43.507 c -0.6669,-33.09771 -0.8328,-35.44498 -2.4678,-34.92602 -11.5036,3.65109 -32.1889,4.62956 -42.328,2.0023 -5.8857,-1.52519 -5.8857,-1.52519 -11.2082,2.56531 -27.5704,21.18929 -70.5884,22.45208 -97.8527,2.87236 -4.4229,-3.17629 -4.4229,-3.17629 -10.887,2.74141 -11.9522,10.94202 -26.8431,17.73371 -42.294,19.29017 -7.0247,0.70773 -7.0247,0.70773 -8.6358,7.24497 -3.5072,14.23055 -14.7751,29.11844 -27.8061,36.73904 -6.8276,3.99295 -6.8276,3.99295 118.3375,4.49582 125.1652,0.50286 125.1652,0.50286 125.511,-3.52006 0.1903,-2.2126 0.024,-19.99005 -0.3689,-39.5053 z m -272.113,27.88331 c 18.867,-3.06123 34.2538,-19.08439 38.6907,-40.29098 2.527,-12.07749 4.9241,-13.94855 17.9182,-13.98687 18.0399,-0.0532 34.3043,-8.25562 45.5428,-22.96821 7.5958,-9.94404 11.4016,-10.24153 20.912,-1.63511 24.182,21.88334 60.9185,21.4736 86.0602,-0.95987 7.1667,-6.39483 8.7394,-6.69654 17.7893,-3.41304 19.4838,7.06916 43.4367,1.3167 60.3716,-14.49858 34.5249,-32.242541 10.8609,-85.518679 -38.4833,-86.639563 -12.2028,-0.277179 -14.0287,-1.383077 -17.4647,-10.577244 -13.8981,-37.186801 -49.8127,-52.108891 -83.7205,-34.78482 -14.5352,7.426398 -17.7567,6.360728 -26.8328,-8.875451 -36.105,-60.611016 -130.9535,-50.438477 -151.331,16.230341 -5.4403,17.7992774 -6.9463,19.0447712 -20.6789,17.10271 -91.6131,-12.955791 -108.0171,116.691727 -17.8969,141.445117 7.6583,2.10358 9.2558,4.3553 10.7704,15.18227 4.5825,32.75848 29.3092,53.38174 58.3529,48.6693 z"
         id="path1"
         sodipodi:nodetypes="ccccccccccccccccccccccccccccccccccccccccccccccccccccccccccccccccccccccccccccccccccccccccccccccccccccccccccccccccccccccccccccccccc" /></g></g></svg>
