<?xml version="1.0" encoding="UTF-8" standalone="no"?>
<svg
   version="1.0"
   width="1024px"
   height="1024px"
   viewBox="0 0 1024 1024"
   preserveAspectRatio="xMidYMid meet"
   id="svg18"
   sodipodi:docname="currency.svg"
   inkscape:version="1.3.2 (091e20e, 2023-11-25)"
   inkscape:export-filename="currency.png"
   inkscape:export-xdpi="96"
   inkscape:export-ydpi="96"
   xmlns:inkscape="http://www.inkscape.org/namespaces/inkscape"
   xmlns:sodipodi="http://sodipodi.sourceforge.net/DTD/sodipodi-0.dtd"
   xmlns:xlink="http://www.w3.org/1999/xlink"
   xmlns="http://www.w3.org/2000/svg"
   xmlns:svg="http://www.w3.org/2000/svg">
  <defs
     id="defs18">
    <linearGradient
       id="linearGradient7"
       inkscape:collect="always">
      <stop
         style="stop-color:#212121;stop-opacity:1;"
         offset="0"
         id="stop7" />
      <stop
         style="stop-color:#151515;stop-opacity:1;"
         offset="1"
         id="stop8" />
    </linearGradient>
    <linearGradient
       id="linearGradient3"
       inkscape:collect="always">
      <stop
         style="stop-color:#ffffff;stop-opacity:1;"
         offset="0"
         id="stop3" />
      <stop
         style="stop-color:#a2a2a2;stop-opacity:1;"
         offset="1"
         id="stop6" />
    </linearGradient>
    <linearGradient
       inkscape:collect="always"
       xlink:href="#linearGradient4"
       id="linearGradient5"
       x1="0"
       y1="0"
       x2="1024"
       y2="1024"
       gradientUnits="userSpaceOnUse"
       gradientTransform="matrix(0.98545102,0,0,0.98545102,7.4489985,7.4491014)" />
    <linearGradient
       id="linearGradient4"
       inkscape:collect="always">
      <stop
         style="stop-color:#e5e5e5;stop-opacity:1;"
         offset="0"
         id="stop4" />
      <stop
         style="stop-color:#6d6d6d;stop-opacity:1;"
         offset="1"
         id="stop5" />
    </linearGradient>
    <linearGradient
       inkscape:collect="always"
       xlink:href="#linearGradient15"
       id="linearGradient14"
       x1="0"
       y1="0"
       x2="1024"
       y2="1024"
       gradientUnits="userSpaceOnUse"
       gradientTransform="matrix(0.98545102,0,0,0.98545102,7.4489985,7.4491014)" />
    <linearGradient
       id="linearGradient15"
       inkscape:collect="always">
      <stop
         style="stop-color:#919191;stop-opacity:1;"
         offset="0"
         id="stop14" />
      <stop
         style="stop-color:#292929;stop-opacity:1;"
         offset="1"
         id="stop15" />
    </linearGradient>
    <filter
       inkscape:label="Tinfoil"
       inkscape:menu-tooltip="Metallic foil effect combining two lighting types and variable crumple"
       inkscape:menu="Bumps"
       height="1.015629"
       width="1.015629"
       x="-0.0078145177"
       y="-0.0078145177"
       style="color-interpolation-filters:sRGB"
       id="filter18">
      <feBlend
         mode="normal"
         in2="result16"
         id="feBlend18" />
      <feDisplacementMap
         in2="result5"
         xChannelSelector="R"
         scale="0"
         id="feDisplacementMap18"
         yChannelSelector="A" />
    </filter>
    <inkscape:path-effect
       effect="offset"
       id="path-effect2"
       is_visible="true"
       lpeversion="1.2"
       linejoin_type="miter"
       unit="mm"
       offset="-7.3908826"
       miter_limit="4"
       attempt_force_join="false"
       update_on_knot_move="true" />
    <linearGradient
       xlink:href="#linearGradient439"
       id="linearGradient432"
       gradientUnits="userSpaceOnUse"
       x1="-2375.5129"
       y1="1403.6593"
       x2="-1694.5388"
       y2="778.37189" />
    <linearGradient
       id="linearGradient439">
      <stop
         style="stop-color:#3e5159;stop-opacity:1;"
         offset="0"
         id="stop438" />
      <stop
         style="stop-color:#5e8291;stop-opacity:1;"
         offset="1"
         id="stop439" />
    </linearGradient>
    <linearGradient
       xlink:href="#linearGradient395"
       id="linearGradient433"
       gradientUnits="userSpaceOnUse"
       x1="-2299.3228"
       y1="921.19049"
       x2="-1983.1794"
       y2="1274.9839" />
    <linearGradient
       id="linearGradient395">
      <stop
         style="stop-color:#c1e3ee;stop-opacity:1;"
         offset="0"
         id="stop395" />
      <stop
         style="stop-color:#344c56;stop-opacity:1;"
         offset="1"
         id="stop396" />
    </linearGradient>
    <linearGradient
       inkscape:collect="always"
       xlink:href="#linearGradient2-1"
       id="linearGradient3-9"
       x1="28.345703"
       y1="28.345703"
       x2="1024"
       y2="1024"
       gradientUnits="userSpaceOnUse" />
    <linearGradient
       id="linearGradient2-1"
       inkscape:collect="always">
      <stop
         style="stop-color:#cacaca;stop-opacity:1;"
         offset="0"
         id="stop2-2" />
      <stop
         style="stop-color:#595959;stop-opacity:1;"
         offset="1"
         id="stop3-7" />
    </linearGradient>
    <linearGradient
       inkscape:collect="always"
       xlink:href="#linearGradient12-9"
       id="linearGradient13-0"
       x1="28.345703"
       y1="28.345703"
       x2="1024"
       y2="1024"
       gradientUnits="userSpaceOnUse" />
    <linearGradient
       id="linearGradient12-9"
       inkscape:collect="always">
      <stop
         style="stop-color:#989898;stop-opacity:0.60375506;"
         offset="0"
         id="stop12-3" />
      <stop
         style="stop-color:#444444;stop-opacity:1;"
         offset="1"
         id="stop13-6" />
    </linearGradient>
    <filter
       inkscape:label="Tinfoil"
       inkscape:menu-tooltip="Metallic foil effect combining two lighting types and variable crumple"
       inkscape:menu="Bumps"
       height="1.015629"
       width="1.015629"
       x="-0.0078145177"
       y="-0.0078145177"
       style="color-interpolation-filters:sRGB"
       id="filter18-0">
      <feBlend
         mode="normal"
         in2="result16"
         id="feBlend18-6" />
      <feDisplacementMap
         in2="result5"
         xChannelSelector="R"
         scale="0"
         id="feDisplacementMap18-2"
         yChannelSelector="A" />
    </filter>
    <inkscape:path-effect
       effect="offset"
       id="path-effect2-6"
       is_visible="true"
       lpeversion="1.2"
       linejoin_type="miter"
       unit="mm"
       offset="-7.3908826"
       miter_limit="4"
       attempt_force_join="false"
       update_on_knot_move="true" />
    <linearGradient
       inkscape:collect="always"
       xlink:href="#linearGradient3"
       id="linearGradient6"
       x1="1293.4868"
       y1="225.74414"
       x2="1718.0055"
       y2="919.37195"
       gradientUnits="userSpaceOnUse"
       gradientTransform="translate(22,-6)" />
    <linearGradient
       inkscape:collect="always"
       xlink:href="#linearGradient7"
       id="linearGradient8"
       x1="1275.8242"
       y1="206.78928"
       x2="1944.6083"
       y2="919.37195"
       gradientUnits="userSpaceOnUse"
       gradientTransform="translate(22,-6)" />
  </defs>
  <sodipodi:namedview
     id="namedview18"
     pagecolor="#505050"
     bordercolor="#ffffff"
     borderopacity="1"
     inkscape:showpageshadow="0"
     inkscape:pageopacity="0"
     inkscape:pagecheckerboard="1"
     inkscape:deskcolor="#505050"
     inkscape:zoom="0.13896996"
     inkscape:cx="881.48545"
     inkscape:cy="442.54168"
     inkscape:window-width="1920"
     inkscape:window-height="1006"
     inkscape:window-x="1080"
     inkscape:window-y="290"
     inkscape:window-maximized="1"
     inkscape:current-layer="layer4" />
  <g
     id="g2"
     style="display:inline"
     transform="translate(1.0151755e-4,3.2681998)">
    <path
       id="path1-7"
       style="fill:url(#linearGradient5);stroke:url(#linearGradient14);stroke-width:14.8982;stroke-linecap:square;stroke-dasharray:none;paint-order:stroke fill markers"
       d="M 1016.5509,512.0001 A 504.55092,504.55092 0 0 1 511.99991,1016.5509 504.55092,504.55092 0 0 1 7.4489985,512.0001 504.55092,504.55092 0 0 1 511.99991,7.4491014 504.55092,504.55092 0 0 1 1016.5509,512.0001 Z" />
    <path
       id="circle2-1"
       style="display:inline;fill:url(#linearGradient3-9);fill-opacity:1;stroke:url(#linearGradient13-0);stroke-width:15.1181;stroke-linecap:square;stroke-dasharray:none;stroke-opacity:1;paint-order:stroke fill markers;filter:url(#filter18-0)"
       d="m 512,28.345703 c 128.26876,0 251.29452,50.960536 341.99414,141.660157 C 944.69376,260.70548 995.6543,383.73124 995.6543,512 c 0,128.26876 -50.96054,251.29452 -141.66016,341.99414 C 763.29452,944.69376 640.26876,995.6543 512,995.6543 383.73124,995.6543 260.70548,944.69376 170.00586,853.99414 79.306239,763.29452 28.345703,640.26876 28.345703,512 28.345703,383.73124 79.306239,260.70548 170.00586,170.00586 260.70548,79.306239 383.73124,28.345703 512,28.345703 Z"
       transform="matrix(0.98545102,0,0,0.98545102,7.449027,7.4490785)"
       inkscape:original-d="M 1024,512 A 512,512 0 0 1 512,1024 512,512 0 0 1 0,512 512,512 0 0 1 512,0 512,512 0 0 1 1024,512 Z"
       inkscape:path-effect="#path-effect2-6" />
  </g>
  <g
     inkscape:groupmode="layer"
     id="layer3"
     inkscape:label="Layer 1"
     style="display:inline"
     sodipodi:insensitive="true">
    <g
       id="g8"
       transform="translate(-1097.9293,-47.802063)">
      <path
         id="pnfxA8y4D"
         style="display:inline;fill:url(#linearGradient8);stroke:none;stroke-width:0.055293"
         d="m 1558.8047,200.83984 c -70.0447,1.03096 -137.913,17.79543 -187.8281,48.08789 -39.9175,24.22508 -64.974,55.40413 -71.8809,89.57618 -1.2739,6.30243 -1.2715,6.3038 -1.2715,218.6289 0,212.3251 0,212.32256 1.2715,218.57227 4.3759,21.56267 15.6932,41.64685 33.5645,59.60547 16.0785,16.15717 33.6256,28.51669 57.2285,40.30859 44.9051,22.43447 102.5679,35.79607 161.7304,37.49024 14.2114,0.40695 37.5456,0.33272 45.3418,-0.16602 41.4698,-2.65297 78.0296,-10.40984 152.0547,-32.40234 51.6007,-15.33032 79.0178,-22.36922 104.8906,-26.98243 25.6049,-4.56543 41.1935,-6.02734 63.4766,-6.02734 16.4221,0 20.4554,0.24543 39.9766,2.48828 6.4666,0.74298 7.2825,0.54476 8.5156,-1.82422 0.8681,-1.66758 1.0175,-409.26716 0.166,-411.54687 -0.8628,-2.3101 -2.9362,-3.17122 -10.1191,-4.20313 -12.4463,-1.78805 -23.0018,-2.40105 -41.0274,-2.37695 -23.3888,0.0312 -38.0451,1.30083 -62.8672,5.41992 -13.4959,2.23961 -14.8282,2.33086 -16.2558,0.77344 -1.0054,-1.09673 -1.0594,-2.93146 -1.3828,-44.67774 -0.2849,-36.76978 -0.4844,-44.33761 -1.2715,-49.26562 -3.0281,-18.95878 -10.9923,-36.16986 -24.8262,-53.35742 -4.4128,-5.48259 -17.8574,-18.6385 -24.164,-23.66602 -17.1375,-13.66151 -40.922,-27.24282 -63.586,-36.32617 -19.6905,-7.8916 -44.5093,-15.2137 -66.3515,-19.57422 -31.2574,-6.24012 -63.5463,-9.0233 -95.3848,-8.55469 z m 5.2871,18.7793 c 72.2398,-0.22689 143.1066,16.7747 192.334,48.44141 13.4925,8.6794 30.1466,23.15794 38.373,33.34179 10.1309,12.54159 16.7425,25.81089 19.8496,39.86524 1.6482,7.45483 1.7848,21.29102 0.2774,28.86328 -12.7582,64.08747 -105.8849,115.04113 -223.0528,122.03125 -19.0741,1.13796 -56.45,0.13923 -75.3632,-1.99023 -72.4308,-8.15505 -134.6375,-33.34387 -170.4141,-69.00586 -16.033,-15.98167 -25.3299,-32.12407 -29.25,-50.64844 -1.7198,-8.12686 -1.6733,-20.56038 0,-28.53125 1.3679,-6.51614 4.375,-15.53358 6.8008,-20.34766 8.301,-16.47373 21.6549,-31.65451 40.0332,-45.56055 25.2479,-19.1039 63.4776,-35.8785 102.9551,-45.23046 31.5002,-7.46223 64.6207,-11.12539 97.457,-11.22852 z m 1.5,83.12695 c -22.5381,-0.0159 -45.1898,5.08677 -62.2422,15.68555 -16.9796,10.55352 -25.6005,24.38367 -24.8262,39.64453 1.3269,26.1536 31.0748,46.71361 73.9258,51.14649 6.8573,0.70938 26.9259,0.21289 33.7285,-0.82813 35.1096,-5.37296 60.3899,-21.94918 65.8535,-43.29492 3.4385,-13.43357 -0.8304,-26.53961 -12.2187,-37.71094 -16.4543,-16.14089 -45.2432,-24.62216 -74.2207,-24.64258 z m -247.3086,115.87696 c 0.3316,-0.0118 2.6613,2.2605 5.252,5.08789 8.3019,9.06062 17.4508,17.8875 24.4414,23.49804 40.0638,32.15464 99.6416,54.04051 167.1504,61.48633 15.2096,1.67753 24.4939,2.28915 42.2988,2.6543 49.5973,1.01718 91.7317,-4.80882 153.3828,-21.17773 5.1981,-1.38014 22.2833,-6.08291 37.9316,-10.44922 43.4046,-12.11099 60.2678,-16.42956 81.17,-20.95704 37.0448,-8.02403 72.8203,-11.4895 101.2968,-9.7871 12.219,0.73048 14.4034,1.18185 15.9785,3.20703 1.1341,1.45871 1.1622,1.43772 1.1622,187.44336 0,204.3629 0.2834,188.80085 -3.2618,189.54492 -0.9341,0.19607 -7.0787,0.0723 -13.7129,-0.27735 -33.232,-1.75145 -71.3302,2.76031 -116.5585,13.82422 -16.4786,4.03109 -33.4589,8.76583 -69.1153,19.24219 -50.1583,14.73725 -68.6745,19.63311 -92.6172,24.43945 -20.6787,4.15113 -36.8795,6.41321 -55.0156,7.74024 -6.8011,0.49764 -38.5934,0.59469 -48.3809,0.16601 -57.117,-2.50184 -106.4996,-13.70272 -148.4628,-33.83789 -22.4531,-10.77362 -40.668,-23.30664 -55.293,-37.93164 -17.8874,-17.88728 -28.0525,-37.15462 -30.1348,-57.2832 -0.7376,-7.13086 -0.7395,-340.37712 0,-343.53711 0.477,-2.03805 1.2714,-3.0522 2.4883,-3.0957 z m 494.9277,0 c 0.2765,0 1.0566,0.32219 1.6582,0.77343 0.9467,0.71 1.0473,1.65878 1.2168,10.17383 0.2728,13.71274 0.99,12.9173 -15.5371,16.97657 -5.5349,1.35946 -10.9468,2.48828 -12.0527,2.48828 -4.6446,0 -3.77,-1.61297 6.8555,-12.27539 5.2437,-5.26197 11.2782,-11.50322 13.3808,-13.82422 2.155,-2.3789 4.1468,-4.3125 4.4785,-4.3125 z m -180.7187,99.02343 c -0.4785,-0.0105 -1.0304,0.0131 -1.6934,0.0625 -2.5461,0.1896 -3.4667,0.56893 -4.8652,1.87891 -2.9698,2.78185 -3.2617,4.14783 -3.2617,15.26172 0,9.01276 0.1288,10.27413 1.1601,12.38477 1.3464,2.75529 2.0351,3.46021 4.7559,4.42382 2.5877,0.91648 2.7152,0.91001 5.2519,0.22071 2.5506,-0.6931 5.1893,-3.70606 5.9727,-6.68946 0.3782,-1.44008 0.5396,-5.91607 0.4414,-11.77734 -0.1779,-10.61606 -0.6841,-12.07766 -4.3672,-14.59766 -1.1776,-0.80577 -1.9589,-1.13652 -3.3945,-1.16797 z m -1.336,54.79688 c -3.0236,0.0102 -5.9348,1.83103 -7.4335,5.20312 -1.0149,2.28327 -1.1027,3.48249 -0.9415,13.10352 0.1705,10.17386 0.2376,10.66125 1.4942,12.44141 0.7341,1.03995 2.1099,2.36193 3.041,2.92968 3.6031,2.19701 8.7358,0.83084 11.2793,-2.98437 1.4376,-2.15643 1.4581,-2.54469 1.6582,-11.72266 0.2423,-11.11467 -0.2311,-13.42555 -3.1504,-16.36718 -1.7566,-1.77008 -3.8784,-2.61047 -5.9473,-2.60352 z m 0.6387,55.16992 c -2.7625,-0.0787 -5.6164,1.25916 -7.6855,4.05469 -1.0593,1.43121 -1.1659,2.43136 -1.3282,12.43945 -0.1694,10.45032 -0.1118,11.00476 1.1075,13.38086 0.9371,1.82617 1.9303,2.82902 3.7597,3.75977 1.3224,0.67281 3.0397,1.21679 3.7032,1.21679 3.6493,0 7.4427,-3.25357 8.5156,-7.29882 0.3644,-1.37396 0.4994,-5.97029 0.3867,-11.72071 -0.1638,-8.3493 -0.3013,-9.66105 -1.3262,-11.39062 -1.6993,-2.86763 -4.3703,-4.36267 -7.1328,-4.44141 z m -0.2207,54.92383 c -1.2016,0.0346 -2.4674,0.38978 -3.8164,1.05078 -1.932,0.94668 -2.9194,1.88473 -3.8691,3.75977 -1.2067,2.38251 -1.2615,2.93032 -1.1075,13.38086 0.1777,12.0537 0.3213,12.51264 4.3145,15.25976 3.8032,2.61636 9.2675,1.09339 11.832,-3.20703 1.0297,-1.72669 1.1597,-3.03943 1.3262,-11.38867 0.2205,-11.0586 -0.2068,-13.39552 -3.0957,-16.3125 -1.7539,-1.77097 -3.5813,-2.60062 -5.584,-2.54297 z m 0.1719,55.23633 c -0.3995,-0.008 -0.8077,0.0105 -1.2227,0.0566 -2.6521,0.29465 -4.6259,1.5066 -6.414,3.92578 -1.032,1.39626 -1.165,2.43304 -1.3282,12.10937 -0.2238,13.27027 0.3432,15.23857 5.1426,17.74805 3.6605,1.91402 8.9739,0.0643 11.0039,-3.81445 1.0662,-2.03761 1.1602,-3.15138 1.1602,-13.04883 0,-10.78214 -0.018,-10.82493 -1.4922,-13.04883 -1.6609,-2.50533 -4.0534,-3.87227 -6.8496,-3.92773 0,0 0,4e-5 0,4e-5 z m -0.6582,54.95508 c -2.8933,0.0585 -5.7447,1.6283 -7.3106,4.87304 -1.0108,2.0939 -1.1054,3.37276 -1.1054,12.4961 0,11.44564 0.6064,13.76947 4.0351,15.98046 2.4877,1.60422 6.7912,1.53226 9.2344,-0.11132 3.6391,-2.44816 4.1347,-3.98028 4.3125,-14.54102 0.099,-5.86128 -0.059,-10.3405 -0.4414,-11.7793 -1.2154,-4.57139 -5.0047,-6.99321 -8.7246,-6.91796 z m 0.3496,55.10546 c -0.2113,0.002 -0.4244,0.0117 -0.6387,0.0293 -3.318,0.27201 -5.2483,1.66067 -6.8554,4.81055 -1.1576,2.26884 -1.2715,3.15204 -1.2715,12.27539 0,12.16446 0.8151,14.84657 5.2519,16.86328 2.254,1.02452 6.4104,0.60496 8.4043,-0.82812 3.3143,-2.38213 3.7598,-4.20233 3.7598,-15.86915 0,-9.56569 -0.1191,-10.72323 -1.1602,-12.71875 -1.5121,-2.89826 -4.3208,-4.59332 -7.4902,-4.5625 z"
         sodipodi:nodetypes="sssssssssssssssssssssssssssssssssssssssssssssssssssssssssssssssssssssssssssssssssssssssssssssssssssssssssssssssssssssssssssssssssssssssssssssssss" />
      <path
         id="path3"
         style="display:inline;mix-blend-mode:lighten;fill:url(#linearGradient6);stroke:none;stroke-width:25.9604;stroke-linecap:square;paint-order:stroke fill markers"
         d="m 1561.041,219.75977 c -67.7359,1.05758 -137.6607,15.81533 -194.2344,54.62695 -27.4409,19.14673 -51.8276,49.18579 -51.0019,84.27148 1.9094,36.72048 29.8574,65.86135 59.1484,84.8711 50.0148,31.33375 109.3581,45.58119 167.8809,48.32226 45.818,1.25691 92.1992,-1.30152 136.3574,-14.45898 47.2868,-13.55385 95.5502,-36.4908 123.6445,-78.5957 17.0357,-25.31307 16.8149,-60.20108 -0.1836,-85.50196 -26.2108,-40.29614 -72.0385,-62.3371 -116.5742,-76.16406 -40.4564,-12.19556 -82.8173,-17.72117 -125.0371,-17.37109 z m 14.5801,83.90234 c 22.8762,0.47562 45.9466,7.47904 63.1601,22.81445 15.8403,12.98805 19.2999,38.82399 5.0137,54.20508 -20.6399,22.44964 -52.9867,30.04964 -82.5195,28.15039 -29.1358,-0.31804 -62.5445,-8.70651 -78.334,-35.5332 -10.7914,-18.47014 -0.3779,-41.29341 16.3691,-52.18555 18.8901,-13.64725 42.7279,-18.32885 65.7383,-17.25781 l 0.795,-0.002 v 0 c 3.2425,-0.19323 6.5054,-0.25936 9.7734,-0.19141 z m 238.2422,115.05078 c -0.053,-0.002 -0.1067,-0.002 -0.1602,0.004 -3.648,1.69145 -5.9827,5.43491 -8.9765,8.04101 -6.2275,6.74474 -13.2431,12.86699 -18.7246,20.25196 -1.3092,2.06162 1.6724,2.64532 3.1113,2.19335 8.0705,-1.36675 16.1061,-3.34053 23.8398,-6.01757 4.5344,-2.44509 3.3079,-8.4708 3.5039,-12.71094 -0.39,-3.70127 0.5503,-8.05055 -1.623,-11.30078 -0.2644,-0.24939 -0.6033,-0.44659 -0.9707,-0.46094 z m -496.3906,1.47461 c -3.8813,3.16961 -0.5093,10.40341 -1.7539,14.83594 -0.5709,112.23731 0.066,224.48302 0.2714,336.71679 11.5074,40.81032 47.2814,69.45458 83.7696,87.71094 70.3927,32.94274 150.7221,40.68694 227.2832,31.15039 80.4551,-12.3273 156.2786,-44.65282 236.5429,-57.8789 27.357,-4.63134 55.6115,-2.97425 82.961,-4.07618 2.6495,-28.94262 0.8196,-58.18048 1.5859,-87.23242 -0.1043,-93.97558 1.014,-187.9788 -0.8457,-281.9375 0.7881,-4.97905 -1.7351,-10.28577 -7.5039,-9.6582 -69.7314,-5.53847 -137.5709,15.52005 -204.002,33.60742 -54.5997,15.51197 -110.5071,28.3468 -167.582,27.97852 -68.2204,0.0242 -138.25,-13.11034 -197.4551,-48.22071 -19.5947,-11.30396 -34.9853,-28.10916 -51.9824,-42.66211 -0.3962,-0.20129 -0.8363,-0.37072 -1.289,-0.33398 z m 314.1582,97.23242 c 8.1686,0.39656 9.3384,9.4383 8.5214,15.86719 0.089,6.47287 1.2175,17.47623 -7.6757,18.50195 -6.3985,1.76004 -10.0277,-4.81778 -9.5391,-10.41601 0.2994,-8.21359 -3.4135,-22.7517 8.6934,-23.95313 z m -0.2286,54.9082 c 9.5005,0.88535 9.2864,13.5102 9.1875,20.68165 0.3735,6.37025 -2.9016,15.2226 -10.8183,13.79101 -8.4468,-0.87347 -6.6473,-12.20801 -7.0371,-18.07422 -0.3796,-6.35476 0.7059,-15.68029 8.6679,-16.39844 z m 0.961,55.01954 c 10.2423,1.78463 7.2913,14.27861 7.6836,21.64453 1.9982,7.69026 -5.9587,17.11073 -13.5996,11.79492 -5.9713,-6.29859 -2.9376,-16.56052 -3.5723,-24.44922 -0.2092,-4.97659 4.8979,-8.80654 9.4883,-8.99023 z m -0.7149,54.93359 c 9.7489,2.06298 9.1547,15.04506 8.7188,22.83789 0.2526,6.15521 -4.0322,13.20698 -11.125,11.52734 -8.0398,-1.48146 -6.0113,-12.38628 -6.5117,-18.26757 -0.7134,-6.73895 0.9935,-14.98373 8.9179,-16.09766 z m -0.5332,55.45898 c 7.1557,-0.0993 9.8138,7.33891 8.6836,13.36524 -0.8296,6.05082 1.6917,13.75803 -2.4453,18.76172 -4.86,4.39849 -13.9206,1.96719 -13.9922,-5.19336 -0.1377,-8.01771 -2.8954,-17.94586 2.3047,-24.69531 1.5541,-1.13063 3.497,-2.16281 5.4492,-2.23829 z m 0.5254,55.23438 c 9.565,0.80595 9.1973,13.19194 8.8711,20.25977 -0.077,5.96838 -2.1414,15.57028 -10.3105,13.34374 -9.1686,-0.89126 -7.2365,-12.68856 -7.5625,-19.0957 0.1501,-6.06619 1.0452,-14.51179 9.0019,-14.50781 z m -0.5625,55.38086 c 9.2382,-0.99604 8.9175,10.43088 8.6641,16.6875 -0.2522,6.52379 1.2526,17.60913 -8.4102,17.53515 -8.105,-0.76541 -9.4657,-10.73615 -8.6093,-17.23828 0.2829,-5.92359 -0.868,-17.77439 8.3554,-16.98437 z" />
    </g>
  </g>
  <g
     inkscape:groupmode="layer"
     id="layer4"
     inkscape:label="Layer 2"
     style="opacity:0.74;mix-blend-mode:overlay">
    <path
       id="path36"
       style="display:inline;opacity:0.559;mix-blend-mode:normal;fill:#f3fafc;fill-opacity:1;stroke:none;stroke-width:15.1181;stroke-linecap:square;stroke-dasharray:none;paint-order:stroke fill markers"
       d="M 271.42283,61.495001 A 512,512 0 0 0 54.409979,284.3994 l 686.197211,684.642 a 512,512 0 0 0 222.4521,-217.4805 z" />
    <path
       style="display:inline;mix-blend-mode:normal;fill:#f3fafc;fill-opacity:1;stroke-width:0.480205"
       d="m 808.62427,332.27215 c -0.1818,-0.9244 -0.7774,-5.6785 -1.3239,-10.5645 -6.3186,-56.4982 -6.6759,-59.3705 -7.9056,-63.5478 -5.48174,-18.6227 -20.87221,-31.3061 -40.57877,-33.4413 -2.77326,-0.3004 -6.55483,-0.748 -8.40363,-0.9945 -1.84881,-0.2465 -7.57526,-0.8928 -12.72543,-1.4363 -5.15016,-0.5435 -12.8215,-1.3976 -17.04731,-1.898 -4.22581,-0.5003 -12.00516,-1.3693 -17.28738,-1.9311 -14.58595,-1.5512 -14.69149,-1.4885 6.48279,-3.8504 15.90617,-1.7743 17.53689,-1.9636 20.64885,-2.3971 1.71675,-0.2391 5.17421,-0.6706 7.68326,-0.9589 23.59663,-2.7114 25.52368,-2.9936 30.21896,-4.4248 19.4667,-5.9338 30.29876,-20.741 33.11596,-45.2683 0.5434,-4.7314 0.9096,-7.846 2.7388,-23.29 0.6726,-5.6784 1.5386,-13.1336 1.9246,-16.5671 2.0359,-18.1099 3.0627,-25.298197 3.0758,-21.5692 0,0.5062 0.2052,2.6491 0.4517,4.762 0.2464,2.113 0.7943,6.975 1.2175,10.8047 0.4232,3.8296 1.1858,10.6365 1.6947,15.1264 0.9626,8.4943 2.5042,22.1552 3.3869,30.0129 1.5497,13.796 4.5886,23.5935 8.848,28.5268 0.6626,0.7674 1.2047,1.5398 1.2047,1.7164 0,1.7597 10.1165,10.1047 15.7242,12.9707 8.3083,4.2462 10.7571,4.6166 81.6636,12.3518 3.7013,0.4037 2.5242,0.884 -3.7478,1.529 -3.0373,0.3124 -10.9247,1.209 -17.5275,1.9924 -6.6028,0.7835 -17.6235,2.0815 -24.4905,2.8846 -26.9943,3.157 -26.0679,2.9936 -32.4596,5.723 -10.6706,4.5565 -19.0345,12.6681 -24.01,23.2855 -2.6233,5.5979 -3.5884,9.6092 -4.7416,19.7071 -0.2714,2.377 -0.6966,6.0506 -0.9447,8.1635 -0.248,2.1129 -0.7949,6.8669 -1.2152,10.5645 -3.6851,32.4231 -5.2617,44.1031 -5.6714,42.018 z"
       id="path37" />
    <path
       style="display:inline;mix-blend-mode:normal;fill:#f3fafc;fill-opacity:1;stroke-width:0.480205"
       d="m 99.323566,762.0948 c 0,-0.4622 -0.43044,-4.4059 -0.95273,-8.7638 -0.52229,-4.3578 -1.15406,-9.8682 -1.40407,-12.2452 -0.58546,-5.567 -1.80367,-16.5072 -2.48472,-22.3139 -1.36219,-11.6143 -5.80194,-19.1511 -14.84365,-25.1987 -6.09856,-4.079 -8.17382,-4.5806 -27.852,-6.7316 -37.62462,-4.1128 -36.59551,-3.8489 -21.60917,-5.5426 4.88607,-0.5523 11.53086,-1.3181 14.7663,-1.7019 3.23533,-0.3839 8.63767,-1.0222 12.00515,-1.4186 13.87259,-1.633 16.65521,-2.3783 22.38206,-5.9951 8.99057,-5.6781 13.76508,-14.2813 15.19408,-27.3788 0.55658,-5.1003 1.24226,-10.9329 1.91956,-16.327 0.24863,-1.9808 0.68518,-5.8705 0.97008,-8.6437 0.28489,-2.7731 0.71277,-6.4467 0.95106,-8.1634 0.23828,-1.7168 0.56801,-4.3668 0.73258,-5.889 0.36885,-3.4096 1.023984,-3.1807 1.414614,0.4942 0.16093,1.5145 0.49007,4.4824 0.73121,6.5953 0.24124,2.1129 0.6636,5.8945 0.93844,8.4036 0.27495,2.509 0.93875,8.3435 1.47493,12.9655 0.53628,4.622 1.08873,9.4841 1.22758,10.8046 1.87777,17.853 12.46526,30.1421 27.69176,32.1422 4.28888,0.5634 18.89445,2.2255 31.81795,3.6209 20.10606,2.1709 20.13227,1.9363 -0.48021,4.2993 -39.58656,4.5382 -42.95907,5.476 -50.30068,13.9863 -6.08713,7.0563 -7.30544,10.8247 -9.46249,29.2669 -0.29347,2.5091 -1.18057,10.0724 -1.9714,16.8072 -0.79072,6.7349 -1.57091,13.4878 -1.7336,15.0065 -0.26824,2.5031 -1.116324,3.952 -1.122634,1.9208 z"
       id="path38" />
    <path
       style="display:inline;mix-blend-mode:normal;fill:#f3fafc;fill-opacity:1;stroke-width:0.749072"
       d="m 342.50536,987.79946 c 0,-0.7209 -0.67144,-6.8727 -1.48616,-13.6706 -0.81472,-6.7978 -1.80022,-15.39344 -2.19021,-19.10132 -0.91326,-8.68397 -2.81355,-25.74961 -3.87592,-34.80749 -2.12488,-18.11716 -9.05046,-29.87383 -23.15463,-39.30749 -9.51316,-6.36283 -12.75036,-7.14528 -43.44638,-10.50063 -58.6907,-6.41556 -57.08539,-6.0039 -33.70817,-8.64591 7.62178,-0.86153 17.987,-2.0561 23.03397,-2.65479 5.04679,-0.59885 13.47391,-1.59454 18.72685,-2.21288 21.63987,-2.54732 25.98049,-3.70991 34.91381,-9.35177 14.0244,-8.85727 21.47217,-22.27742 23.70127,-42.70823 0.8682,-7.95596 1.9378,-17.05424 2.99432,-25.46851 0.38784,-3.08985 1.06881,-9.1574 1.51323,-13.48332 0.4444,-4.32576 1.11185,-10.05621 1.48356,-12.7341 0.37169,-2.67804 0.88604,-6.81177 1.14275,-9.18626 0.57537,-5.31864 1.59731,-4.96158 2.20665,0.77091 0.25104,2.36247 0.76446,6.9921 1.14062,10.28801 0.37631,3.29592 1.03515,9.19484 1.46387,13.10879 0.4289,3.9138 1.46436,13.01504 2.30075,20.22491 0.83654,7.20986 1.69831,14.79426 1.9149,16.85411 2.92914,27.84892 19.44458,47.0187 43.19642,50.13866 6.69023,0.87885 29.47348,3.47156 49.63287,5.64825 31.36347,3.38639 31.40435,3.02044 -0.74908,6.70648 -61.75114,7.07915 -67.01192,8.54202 -78.46411,21.81725 -9.49532,11.00714 -11.39577,16.88547 -14.76055,45.65348 -0.45779,3.91395 -1.84157,15.71195 -3.07519,26.21758 -1.23345,10.50577 -2.45047,21.03967 -2.70425,23.40867 -0.41842,3.9046 -1.74134,6.1647 -1.75119,2.9962 z"
       id="path8" />
  </g>
</svg>
