<?xml version="1.0" encoding="UTF-8" standalone="no"?>
<svg
   version="1.0"
   width="1024px"
   height="1024px"
   viewBox="0 0 1024 1024"
   preserveAspectRatio="xMidYMid meet"
   id="svg18"
   sodipodi:docname="logo.svg"
   inkscape:version="1.3.2 (091e20e, 2023-11-25)"
   xmlns:inkscape="http://www.inkscape.org/namespaces/inkscape"
   xmlns:sodipodi="http://sodipodi.sourceforge.net/DTD/sodipodi-0.dtd"
   xmlns="http://www.w3.org/2000/svg"
   xmlns:svg="http://www.w3.org/2000/svg">
  <defs
     id="defs18" />
  <sodipodi:namedview
     id="namedview18"
     pagecolor="#505050"
     bordercolor="#ffffff"
     borderopacity="1"
     inkscape:showpageshadow="0"
     inkscape:pageopacity="0"
     inkscape:pagecheckerboard="1"
     inkscape:deskcolor="#505050"
     inkscape:zoom="0.39306641"
     inkscape:cx="357.44596"
     inkscape:cy="678.00249"
     inkscape:window-width="1920"
     inkscape:window-height="1006"
     inkscape:window-x="1080"
     inkscape:window-y="290"
     inkscape:window-maximized="1"
     inkscape:current-layer="svg18" />
  <g
     id="g1"
     transform="matrix(1.1696174,0,0,1.1696174,-83.627661,-54.612742)">
    <g
       id="g20"
       transform="translate(-1137.1974,239.63036)">
      <g
         id="g19">
        <path
           d="m 1363.8974,342.86964 c -17.45,-3.15 -27.1,-9.35 -34.7,-22.25 -2.35,-4 -5.1,-11.3 -6.6,-17.45 -1.7,-7.05 -2.45,-15.3 -2.45,-28.35 0,-12.2 0,-12.35 1.1,-13.1 1,-0.7 4,-0.8 23,-0.8 21.9,0 21.9,0 22.6,1.15 0.55,0.85 0.75,3.85 0.95,12.35 0.3,12.45 0.95,15.9 3.8,19.85 1.45,2.05 4.4,3.8 6.3,3.8 3.4,0 7.3,-3.65 9.25,-8.75 1.25,-3.15 1.25,-3.15 1.5,-86.5 0.2,-63.9 0.4,-83.5 0.85,-83.95 0.45,-0.45 6.5,-0.6 24.75,-0.5 23.8,0.1 24.15,0.1 25.05,1.1 0.8,1 0.85,5.5 0.85,79.45 0,88.15 -0.05,89.65 -3.3,103.8 -4.5,19.7 -17.3,33.75 -35,38.45 -7.45,2 -10.3,2.25 -22.95,2.2 -6.85,-0.05 -13.6,-0.25 -15,-0.5 z"
           id="path2"
           style="fill:#ede9e2" />
        <path
           d="m 1456.2974,340.16964 c -1.15,-0.8 -1.15,-0.8 -1.15,-110 0,-81.4 0.15,-109.55 0.6,-110.45 0.35,-0.85 1.1,-1.4 2.1,-1.6 0.9,-0.15 16.45,-0.2 34.55,-0.05 35.55,0.2 35.55,0.2 47,3.1 12.8,3.25 22.35,9.95 29.55,20.75 6.45,9.7 9.15,20.05 9.2,35.05 0.05,22 -6.35,36.95 -19.5,45.4 -1.7,1.1 -3.55,2.15 -4.1,2.35 -0.85,0.25 -0.25,0.75 3.05,2.5 4.65,2.5 9.15,5.8 11.55,8.55 7.9,9 12,22.9 12,40.9 0,27.75 -9.85,46.25 -29.85,56.05 -3.25,1.6 -6.35,3.05 -6.9,3.25 -2.6,0.9 -4.3,1.45 -9.1,2.7 -6.3,1.7 -10.7,1.9 -44.15,2.1 -30.45,0.2 -33.85,0.15 -34.85,-0.6 z m 59.3,-45.5 c 4.6,-1.15 7.35,-2.6 9.9,-5.15 3,-2.9 4,-4.95 4.95,-10.15 0.65,-3.3 0.65,-4.7 0.2,-7.6 -0.95,-6 -2.55,-10.35 -5.25,-14.35 -3.95,-5.85 -8.5,-8 -17.1,-8 -4.15,0 -4.15,0 -4.15,23 0,23 0,23 4.3,23 2.35,0 5.6,-0.35 7.15,-0.75 z m -1.6,-89.05 c 3.8,-0.95 5.7,-1.95 8.1,-4.35 3.7,-3.7 5.8,-8.55 6.8,-15.9 0.35,-2.4 -0.25,-6.5 -1.55,-10.35 -2.85,-8.6 -8.95,-12.55 -19.55,-12.6 -3.65,0 -3.65,0 -3.65,22.25 0,22.25 0,22.25 3.65,21.95 1.95,-0.2 4.75,-0.6 6.2,-1 z"
           id="path3"
           style="fill:#ede9e2" />
        <path
           d="m 1591.6974,338.86964 c -0.35,-1.05 -0.55,-7.9 -0.55,-19.85 0,-18.25 0,-18.25 5.45,-32.05 3,-7.6 6.65,-16.85 8.05,-20.55 5.25,-13.7 8.6,-22.3 9,-23.25 0.25,-0.55 1.95,-4.8 3.7,-9.5 1.8,-4.65 4.4,-11.4 5.8,-15 1.45,-3.55 3.2,-8.2 4,-10.25 0.75,-2.05 2.15,-5.65 3.15,-8 3.65,-8.8 4.85,-11.95 7.15,-18.25 1.3,-3.55 3.3,-9.05 4.45,-12.1 2.1,-5.65 2.1,-5.65 -22.3,-5.65 -24.4,0 -24.4,0 -25.4,-1.3 -1,-1.3 -1.05,-1.85 -1.05,-22.15 0,-18.05 0.1,-21 0.8,-21.95 0.75,-1.1 0.75,-1.1 52.2,-1.1 46.1,0 51.5,0.1 52.2,0.8 0.7,0.65 0.8,3.3 0.8,21.4 0,19.6 -0.05,20.8 -1.05,23.85 -1.1,3.4 -5.05,14.2 -7.45,20.45 -0.8,2.05 -2.55,6.7 -3.95,10.25 -2.85,7.45 -15.85,40.7 -19.85,50.8 -1.5,3.75 -2.7,6.95 -2.7,7.15 0,0.15 -0.4,1.25 -0.95,2.45 -0.5,1.15 -2.8,6.85 -5.05,12.6 -3.3,8.45 -9.65,24.5 -10.4,26.35 -0.1,0.2 10.9,0.4 24.5,0.4 21.55,0 24.8,0.1 25.8,0.8 1.1,0.75 1.1,0.75 1.1,22 0,13.7 -0.2,21.6 -0.5,22.25 -0.5,0.95 -1.65,0.95 -53.45,0.95 -52.95,0 -52.95,0 -53.5,-1.55 z"
           id="path4"
           style="fill:#ede9e2" />
        <path
           d="m 1713.7474,339.16964 c -0.45,-1 -0.6,-27.55 -0.6,-110.45 0,-106.9 0,-109.15 0.95,-110 0.9,-0.8 3.1,-0.85 32.15,-0.7 31.15,0.25 31.15,0.25 37.4,1.55 7.6,1.6 10.35,2.4 15.4,4.55 8.55,3.6 18.7,10.7 23.5,16.45 2.65,3.2 7.2,10.4 8.9,14.15 3.95,8.6 6.65,21.6 8.3,39.45 1,11.05 0.85,61.8 -0.25,71.25 -2.4,21 -6.3,34.6 -12.75,44.7 -9.55,14.95 -23.65,24.45 -42.75,28.9 -4.4,1.05 -5.95,1.1 -37.15,1.25 -32.5,0.2 -32.5,0.2 -33.1,-1.1 z m 59,-48.2 c 6.4,-1.85 10.1,-4.9 12.8,-10.6 3.7,-7.85 4.8,-19.55 4.8,-50.45 0,-20.75 -0.3,-26.4 -1.75,-36.25 -3.05,-20.5 -8.05,-26.8 -21.8,-27.6 -4.65,-0.3 -4.65,-0.3 -4.65,63.1 0,63.4 0,63.4 3.65,63.1 1.95,-0.2 5.1,-0.75 6.95,-1.3 z"
           id="path5"
           style="fill:#ede9e2" />
        <path
           d="m 1851.9974,339.66964 c -0.2,-0.4 -0.35,-50.05 -0.4,-110.3 -0.05,-96.85 0.05,-109.65 0.7,-110.3 1.15,-1.15 58.55,-1.1 64.85,0 9.95,1.8 17.2,4.15 25.3,8.15 11.8,5.8 19.1,13.3 24.7,25.45 3.35,7.35 4.8,12.8 6.25,23.9 1.6,11.85 0.85,34.15 -1.5,45.6 -3.5,17.2 -12.75,31.1 -25.25,38.15 -8.95,5.05 -23.55,8.1 -38.75,8.1 -4.45,0 -6.75,0.2 -7.15,0.6 -0.45,0.45 -0.6,9 -0.6,35.4 0,26.4 -0.15,34.95 -0.6,35.4 -0.45,0.45 -6.45,0.6 -23.95,0.6 -20.05,0 -23.4,-0.1 -23.6,-0.75 z m 58.15,-119.3 c 6.6,-2.1 10.45,-5.5 13.25,-11.6 2.5,-5.55 3,-8.25 2.95,-16.35 -0.1,-14.2 -3.95,-22.85 -11.5,-25.65 -2.7,-1 -9.9,-2.35 -12.8,-2.35 -1.9,0 -1.9,0 -1.9,28.8 0,28.85 0,28.85 3.4,28.55 1.85,-0.2 4.85,-0.8 6.6,-1.4 z"
           id="path6"
           style="fill:#ede9e2" />
      </g>
    </g>
    <g
       fill="#d7261d"
       id="g11">
      <path
         d="m 483.25,776.1 c -1.8,-1.1 -6.45,-6.85 -16.5,-20.25 -6.6,-8.8 -7.5,-9.8 -7.85,-8.8 -0.5,1.3 -0.2,1.5 -4.25,-3.3 -2.25,-2.7 -7.8,-10.15 -14.85,-20 -3.2,-4.45 -23,-34.25 -29.55,-44.45 -2.75,-4.3 -5.25,-7.8 -5.55,-7.8 -0.7,0 -3.8,1.05 -18.2,6 -24.1,8.4 -41.05,14 -42.2,14 -0.15,0 -0.3,-0.35 -0.3,-0.75 0,-1 0.15,-1.05 -6.75,1.2 -4.95,1.65 -13.15,4 -29.25,8.55 -0.95,0.25 -3.9,1.15 -6.5,1.95 -2.6,0.8 -7.8,2.4 -11.5,3.55 -3.7,1.1 -7.3,2.25 -8,2.5 -0.7,0.25 -4.3,1.4 -8,2.5 -3.7,1.15 -8.65,2.75 -11,3.5 -2.35,0.75 -7.15,2.35 -10.75,3.45 -3.55,1.15 -10.55,3.4 -15.5,5.05 -4.95,1.6 -11.35,3.6 -14.25,4.5 -2.9,0.85 -5.9,1.8 -6.75,2.05 -0.8,0.25 -3.75,1.1 -6.5,1.9 -2.75,0.85 -8.45,2.5 -12.65,3.75 -10.45,3.1 -11.3,3.25 -12.9,1.75 -0.7,-0.65 -1.6,-1.8 -2,-2.55 -0.95,-1.8 -0.9,-6.25 0.1,-8.95 0.45,-1.2 1.65,-4.65 2.7,-7.7 1.1,-3 2.9,-8.1 4,-11.25 2.3,-6.35 2.8,-7.7 12,-34 3.55,-10.05 7.2,-20.6 8.2,-23.5 0.95,-2.9 2.8,-8.15 4,-11.75 1.25,-3.55 2.3,-6.65 2.3,-6.8 0,-0.25 -4.9,-0.95 -13.75,-1.95 -2.45,-0.25 -8.3,-0.95 -13,-1.5 -8.15,-0.95 -11.2,-1.3 -22.75,-2.55 -4.65,-0.5 -12.3,-1.45 -18.25,-2.3 -2.5,-0.4 -5.25,-2.1 -6.95,-4.3 -1.8,-2.35 -1.75,-4.95 0.2,-8.05 1.8,-2.8 9.9,-14.15 15.75,-22.05 2.25,-3 7.8,-10.55 12.3,-16.75 4.55,-6.2 9.2,-12.5 10.35,-14 1.15,-1.5 2.1,-2.95 2.05,-3.25 0,-0.25 -8.35,-6.1 -18.6,-12.9 -10.25,-6.8 -24.2,-16.2 -31.1,-20.9 -17,-11.55 -44.8,-30.05 -51.4,-34.2 -6.55,-4.1 -8.35,-6.2 -8.35,-9.85 0,-3.1 0.95,-5.35 3,-7.05 1.45,-1.25 15.75,-8.45 31,-15.7 14.85,-7.05 23.5,-11.35 23.5,-11.75 0,-0.2 -0.35,-0.4 -0.75,-0.4 -1.65,0 -0.5,-0.85 4.4,-3.2 2.8,-1.35 10.9,-5.25 17.95,-8.6 7.1,-3.4 13.05,-6.2 13.2,-6.2 0.4,0 39.35,-19.55 39.85,-19.95 0.45,-0.45 -0.65,-3.45 -3.75,-10.3 -3.5,-7.85 -6.5,-14.4 -7.8,-17.25 -1.2,-2.6 -3.6,-8.5 -3.6,-8.85 0,-0.1 0.35,-0.15 0.75,-0.15 0.4,0 0.75,-0.15 0.75,-0.35 0,-0.6 -8.45,-19.9 -13.2,-30.25 -0.7,-1.55 -2.5,-5.6 -10.3,-23.15 C 160.85,300 159.25,296.5 150.75,278.25 145.05,266 144,263.65 138.7,251.5 c -2.95,-6.7 -3.4,-8.25 -3.6,-11.4 -0.2,-3.6 -0.2,-3.6 1.8,-5.6 1.65,-1.65 2.3,-2 3.9,-2 2.7,0 8.05,1.4 17.7,4.65 4.55,1.5 10.75,3.45 13.75,4.3 6.75,1.9 12.85,3.8 22,6.8 3.85,1.25 10.85,3.55 15.5,5.05 4.7,1.55 16.5,5.45 26.25,8.7 19.75,6.55 27.75,9.05 37,11.5 3.45,0.9 8.85,2.5 12,3.55 3.15,1 7.8,2.45 10.25,3.2 2.5,0.75 6.75,2 9.5,2.85 2.75,0.8 7.15,2.1 9.75,2.9 2.6,0.75 5.1,1.55 5.55,1.7 0.6,0.3 0.9,-0.05 1.1,-1.3 0.3,-1.7 2.15,-10.55 4.85,-23.4 1.5,-7.2 4.05,-19.4 9.3,-45 1.45,-7.3 2.7,-13.65 2.7,-14.15 0,-0.5 0.5,-2 1.05,-3.4 1.4,-3.2 3.35,-4.45 7.15,-4.45 2.75,0 2.95,0.1 5.6,2.6 8.1,7.65 39.75,39.45 44,44.2 6.1,6.8 15,18.55 22.65,29.8 2,3 3.85,5.4 4.05,5.4 0.2,0 0.5,-0.5 0.65,-1.1 0.35,-1.55 12.25,-27.4 14.75,-31.95 9.45,-17.5 12.4,-22.85 16.75,-30.7 2.75,-4.95 5.95,-10.55 7.1,-12.5 1.1,-1.9 3.95,-6.7 6.25,-10.6 4.6,-7.75 5.55,-8.65 9.4,-8.65 2.35,0 4.25,1.3 5.55,3.9 0.9,1.75 6.45,18.05 11,32.35 1.15,3.6 2.3,6.95 2.55,7.5 0.25,0.55 1.05,2.7 1.7,4.75 2.55,7.55 6.25,18 6.75,18.85 0.45,0.85 0.5,0.85 0.8,0.05 0.4,-1.05 1.25,-1.2 1.25,-0.25 0,0.35 1.75,5.15 3.95,10.6 2.15,5.5 4.3,11.2 4.75,12.65 1.05,3.1 0.05,3.55 9.15,-4.2 3.25,-2.75 9.5,-8.05 13.85,-11.75 4.4,-3.7 11.8,-10.05 16.5,-14.1 7.05,-6.1 8.6,-7.2 8.7,-6.35 0.1,0.55 0.3,1 0.45,1 0.5,0 9.35,-7.45 42.05,-35.25 13.65,-11.6 24.2,-20.4 28.05,-23.35 2.4,-1.9 2.9,-2.1 5.2,-2 3.2,0.15 5.5,1.8 6.5,4.7 0.9,2.6 4.1,18.25 8.9,43.65 0.55,3.05 1.2,6.5 1.45,7.75 0.25,1.25 0.65,3.6 0.95,5.25 0.3,1.65 0.95,5.25 1.5,8 1.45,7.4 4,20.75 5.1,26.75 0.55,2.9 1.2,6.15 1.45,7.25 0.2,1.1 0.7,3.65 1.05,5.65 0.5,3 0.75,3.55 1.45,3.35 0.9,-0.3 0.9,-0.45 3.3,11.65 1.45,7.2 1.45,7.2 3.45,6.9 1.1,-0.2 9,-1.7 17.5,-3.35 20.35,-3.95 29.25,-5.65 36.25,-6.95 10.2,-1.9 18.7,-3.55 20.75,-4 2.3,-0.5 6.25,-1.3 17.75,-3.45 4.55,-0.85 15.25,-2.9 23.75,-4.5 8.55,-1.65 17.55,-3.35 20,-3.8 2.5,-0.45 6.2,-1.1 8.25,-1.45 2.05,-0.4 6.55,-1.2 10,-1.8 3.45,-0.6 8.9,-1.65 12.2,-2.3 10.5,-2.15 15,-1.5 17.85,2.45 1.2,1.65 1.45,2.5 1.45,4.95 0,1.6 -0.3,3.7 -0.7,4.65 -0.65,1.45 -5.65,10.1 -12.7,21.75 -3,5 -8.6,14.6 -8.6,14.75 0,0.1 -1.85,3.15 -4.05,6.85 -2.25,3.65 -5.2,8.55 -6.6,10.9 -1.35,2.35 -2.85,4.8 -3.3,5.5 -1.85,2.7 -5.65,10.2 -5.25,10.4 0.25,0.05 3.85,1.45 7.95,3 6.2,2.4 7.55,3.1 7.65,3.95 0.1,0.75 0.75,1.3 2,1.7 1,0.3 6.6,2.45 12.35,4.7 5.8,2.3 13.55,5.3 17.25,6.75 3.7,1.4 9,3.45 11.75,4.5 2.75,1.1 9.05,3.45 14,5.3 4.95,1.8 13.15,5 18.25,7.05 5.1,2.05 10.95,4.4 13,5.25 2.05,0.8 4.75,1.9 6,2.4 1.25,0.5 4.65,1.85 7.6,3 2.95,1.15 5.9,2.65 6.6,3.35 1.65,1.65 3.3,6.1 3.3,8.9 0,1.85 -0.25,2.45 -1.85,4 -1.05,1.05 -8.2,6.05 -15.9,11.15 -7.7,5.05 -16,10.65 -18.5,12.35 -2.45,1.7 -14,9.4 -25.6,17.15 -11.55,7.75 -21.2,14.3 -21.4,14.55 -0.15,0.35 0.15,0.55 0.7,0.55 1.7,0 1.2,0.65 -2.35,2.95 -11.15,7.3 -23.6,16.25 -23.4,16.85 0.15,0.35 1.9,2.85 3.95,5.55 5.75,7.6 19.55,26.25 25.3,34.2 5.15,7.05 9.6,13.15 14.9,20.25 1.45,2 2.65,3.75 2.65,3.95 0,0.2 -0.35,0.65 -0.75,0.95 -0.6,0.45 -0.35,1 1.4,3.3 3.85,5.05 18.1,24.2 18.95,25.5 0.45,0.7 2.65,3.75 4.85,6.75 2.2,3.05 4.15,6.1 4.3,6.9 0.55,2.35 -0.25,5.25 -1.8,6.85 -2.45,2.45 -4.55,2.7 -13.7,1.8 -4.4,-0.4 -11.25,-1 -15.25,-1.3 -4,-0.3 -9.85,-0.75 -13,-1 -3.15,-0.25 -7.65,-0.6 -10,-0.75 -2.35,-0.1 -6.95,-0.45 -10.25,-0.7 C 834.7,608.8 835,608.8 835,609.7 c 0,0.45 -0.05,0.8 -0.1,0.8 -0.65,-0.05 -20.65,-1.6 -25.9,-2 -18.55,-1.5 -23.8,-1.85 -24.1,-1.65 -0.25,0.1 -0.4,1.4 -0.4,2.8 0,3.9 -1.35,16.8 -2.5,24.1 -0.55,3.6 -1.55,10.8 -2.25,16 -1.75,13.1 -4,28.9 -6.05,42.25 -2.9,18.9 -2.7,18.1 -3.45,17.5 -0.5,-0.4 -1,-0.05 -2.1,1.6 -0.8,1.15 -2.2,2.65 -3.15,3.3 -1.5,1.05 -2.2,1.15 -4.75,0.95 -2.4,-0.2 -4.4,-0.9 -10.25,-3.75 -4,-1.95 -9.6,-4.8 -12.5,-6.35 -2.9,-1.55 -11.75,-6.1 -19.7,-10.1 -12.35,-6.2 -14.5,-7.15 -14.9,-6.45 -0.6,1.1 -0.85,1.05 -4.75,-1.1 -7.1,-4 -63.35,-32.6 -64.05,-32.6 -0.2,0 -2.3,1.75 -4.65,3.9 -10.2,9.2 -12.55,11.3 -19.15,17.15 -3.85,3.4 -8.9,7.85 -11.25,9.9 -2.35,2.05 -6.3,5.55 -8.8,7.8 -2.45,2.2 -6.95,6.15 -9.95,8.75 -4.75,4.1 -5.55,4.6 -6.35,4.05 -1.05,-0.65 -2.45,0.5 -25.5,20.55 -5.9,5.1 -15.1,13.1 -20.45,17.7 -5.35,4.65 -9.85,8.55 -10,8.7 -0.25,0.3 -9.75,8.75 -17.95,16 -2.05,1.8 -4.95,4.2 -6.45,5.4 -2.5,1.95 -2.95,2.1 -5.8,2.1 -2.1,0 -3.55,-0.3 -4.55,-0.9 z M 255,579.25 c 9,-1.75 14.8,-3.9 20.55,-7.75 14.75,-9.75 22,-25.25 23.95,-50.95 0.3,-4.05 0.5,-36.8 0.5,-83.55 0,-72.5 -0.05,-76.95 -0.85,-77.95 -0.9,-1.05 -1.15,-1.05 -23.6,-1.1 -15.95,0 -22.85,0.15 -23.25,0.55 -0.4,0.4 -0.6,24 -0.8,83.9 -0.25,83.35 -0.25,83.35 -1.5,86.6 -2.45,6.4 -7.8,9.95 -12.9,8.55 -4.25,-1.15 -6.35,-3.5 -8.2,-9.2 -0.85,-2.6 -1.05,-4.95 -1.25,-14.35 -0.2,-8.5 -0.4,-11.5 -0.95,-12.35 -0.7,-1.15 -0.7,-1.15 -21.1,-1.15 -17.65,0 -20.55,0.1 -21.5,0.8 -1.1,0.75 -1.1,0.95 -1.1,11.6 0,11.5 0.8,20.05 2.45,26.85 1.5,6.15 4.25,13.45 6.6,17.45 7.6,12.9 17.25,19.1 34.7,22.25 4.3,0.75 24,0.65 28.25,-0.2 z m 134.4,-2.9 c 2.6,-0.45 5.2,-0.95 5.75,-1.1 4.8,-1.25 6.5,-1.8 9.1,-2.7 0.55,-0.2 3.65,-1.65 6.9,-3.25 8.95,-4.4 15.15,-9.85 20.6,-18.15 10.4,-15.8 12.3,-45 4.2,-64.4 -3.1,-7.55 -7.7,-13.15 -14.25,-17.5 -3.15,-2.1 -9.75,-5.25 -10.95,-5.25 -1.6,0 -0.45,-1.1 2.45,-2.25 9.3,-3.8 17.65,-12.85 21.05,-22.85 5.2,-15.4 4.85,-35.3 -0.8,-49.05 -3.3,-8.05 -11.35,-17.7 -18.7,-22.6 -4.05,-2.7 -9.55,-5 -15.5,-6.5 -11.35,-2.85 -11.6,-2.9 -45.5,-3.1 -17.3,-0.15 -32.15,-0.1 -33,0.05 -1.05,0.2 -1.8,0.75 -2.15,1.6 -0.45,0.9 -0.6,28.7 -0.6,108.95 0,107.7 0,107.7 1.15,108.5 1,0.75 4.25,0.8 33.35,0.6 26.5,-0.2 33.1,-0.35 36.9,-1 z m 169.1,-0.3 c 0.3,-0.65 0.5,-8.1 0.5,-20.75 0,-19.75 0,-19.75 -1.1,-20.55 -1,-0.7 -4.1,-0.75 -25.4,-0.75 -13.35,0 -24.55,0 -24.95,0 -1.1,0 -0.4,-2.7 3.1,-11.25 1.8,-4.4 5.1,-12.7 7.35,-18.5 2.3,-5.75 4.55,-11.45 5.05,-12.6 0.55,-1.2 0.95,-2.3 0.95,-2.45 0,-0.2 1.2,-3.4 2.7,-7.15 4,-10.1 17,-43.35 19.85,-50.8 1.4,-3.55 3.15,-8.2 3.95,-10.25 2.4,-6.25 6.35,-17.05 7.45,-20.45 1,-3.05 1.05,-4.25 1.05,-22.35 0,-16.7 -0.1,-19.25 -0.8,-19.9 -0.7,-0.7 -6,-0.8 -50.7,-0.8 -49.95,0 -49.95,0 -50.7,1.1 -0.7,0.95 -0.8,3.75 -0.8,20.45 0,18.8 0.05,19.35 1.05,20.65 1,1.3 1,1.3 25.95,1.3 24.9,0 24.9,0 23.65,3.4 -0.65,1.85 -2.6,7.05 -4.25,11.6 -5.35,14.65 -5.75,15.65 -8,21 -1.25,2.9 -2.7,6.5 -3.25,8 -0.6,1.5 -1.85,4.8 -2.8,7.25 -3.65,9.3 -6.35,16.2 -8.8,22.75 -1.45,3.7 -2.8,7.2 -3.05,7.75 -0.4,1 -3.85,9.85 -9,23.25 -1.4,3.7 -5.05,12.95 -8.05,20.55 -5.45,13.8 -5.45,13.8 -5.45,30.55 0,10.85 0.2,17.3 0.55,18.35 0.55,1.55 0.55,1.55 52,1.55 50.3,0 51.45,0 51.95,-0.95 z m 85.35,-0.45 c 16.4,-3.8 29.4,-11.5 38.1,-22.6 5.35,-6.8 7.7,-10.9 10.45,-18.25 3.35,-9.05 5.25,-17.95 6.95,-32.75 1.1,-9.4 1.25,-57.3 0.25,-68.25 -1.65,-17.8 -4.35,-30.85 -8.3,-39.45 -1.7,-3.75 -6.25,-10.95 -8.9,-14.15 -4.8,-5.75 -14.95,-12.85 -23.5,-16.45 -5.05,-2.15 -7.8,-2.95 -15.4,-4.55 -6.25,-1.3 -6.25,-1.3 -35.9,-1.55 -27.65,-0.15 -29.75,-0.1 -30.65,0.7 -0.95,0.85 -0.95,3 -0.95,108.5 0,81.8 0.15,107.95 0.6,108.95 0.6,1.3 0.6,1.3 31.6,1.1 29.65,-0.15 31.25,-0.2 35.65,-1.25 z m 115.55,0.8 c 0.45,-0.45 0.6,-9 0.6,-35.4 0,-26.4 0.15,-34.95 0.6,-35.4 0.4,-0.4 2.7,-0.6 7.15,-0.6 6.25,0 15.7,-0.9 21,-1.95 18.3,-3.7 29.35,-11.85 37.2,-27.45 5.65,-11.25 8.05,-24.05 8.05,-43.15 0,-13.45 -1.55,-25.65 -4.2,-33.55 -2.65,-7.7 -8.2,-17.2 -12.75,-21.8 -8.9,-8.95 -22.85,-15.35 -40.05,-18.4 -6,-1.1 -60.8,-1.1 -61.85,-0.05 -0.55,0.55 -0.65,18.25 -0.65,108.75 0,59.4 0.15,108.4 0.3,108.8 0.25,0.7 2.85,0.8 22.15,0.8 16.35,0 22,-0.15 22.45,-0.6 z"
         id="path7" />
      <path
         d="M 366.65,535.1 C 364,534.95 364,534.95 364,510.45 364,486 364,486 369.65,486 c 10.2,0 14.45,1.85 18.6,8 2.85,4.25 4.4,8.65 5.35,15.15 0.5,3.75 0.5,5.1 -0.15,9.05 -1,5.75 -2,7.9 -5.1,10.95 -4.5,4.4 -12.2,6.5 -21.7,5.95 z"
         id="path8" />
      <path
         d="m 364,422.8 c 0,-23.8 0,-23.8 5.15,-23.8 14.1,0.05 19.85,4.65 22.4,17.9 1.05,5.6 -0.35,14.35 -3.05,19.3 -1.7,3 -5,6.45 -7.35,7.55 -2.8,1.35 -6.65,2.15 -12,2.5 -5.15,0.4 -5.15,0.4 -5.15,-23.45 z"
         id="path9" />
      <path
         d="m 622,467.3 c 0,-51.45 0.15,-64.8 0.65,-64.85 2.3,-0.2 8.3,0.1 10.65,0.5 3.3,0.65 7.95,2.65 9.65,4.2 3.35,3.15 5.95,9.05 7.5,17.1 2.3,12 2.75,19.1 2.75,43.75 0,32.5 -1.05,43.95 -4.8,51.95 -3.65,7.7 -10,11.25 -21.25,11.9 -5.15,0.3 -5.15,0.3 -5.15,-64.55 z"
         id="path10" />
      <path
         d="M 760.35,461.65 C 760.15,461.5 760,447.75 760,431.15 760,401 760,401 763.4,401 c 4.2,0 11.1,1.15 14.3,2.35 5.15,1.95 8.35,6.3 10.4,14.3 0.9,3.4 1.1,5.65 1.1,12.85 0.05,9.7 -0.35,12.1 -2.95,17.85 -3.65,8 -9.65,11.8 -20.75,13.15 -5,0.6 -4.75,0.6 -5.15,0.15 z"
         id="path11" />
    </g>
    <g
       fill="#99bb33"
       id="g18">
      <path
         d="m 421.75,791.05 c -2.05,-1.25 -2.35,-1.6 -13.75,-16.8 -5.6,-7.4 -11,-14.5 -12,-15.75 -1,-1.25 -7.1,-9.2 -13.5,-17.75 -6.4,-8.5 -13.7,-18.1 -16.2,-21.25 -2.55,-3.15 -7.2,-9.25 -10.4,-13.5 -3.2,-4.3 -7.2,-9.4 -8.85,-11.4 -1.7,-1.95 -3.05,-3.9 -3.05,-4.3 0,-0.4 0.7,-0.85 1.65,-1.05 1.8,-0.4 21.1,-6.9 40.1,-13.5 18.75,-6.5 20.3,-6.95 20.8,-6.15 2.85,4.9 30.1,46.1 34.75,52.65 7.1,9.85 12.65,17.3 15.05,20.15 1.45,1.75 2.65,3.5 2.65,3.85 0,0.75 -2.65,5.3 -8.05,13.75 -1.7,2.6 -4.65,7.4 -6.6,10.65 -2,3.25 -4.25,6.95 -5.05,8.25 -0.8,1.3 -2,3.35 -2.7,4.6 -1.75,3.15 -4.5,6.45 -6.3,7.55 -2.1,1.25 -6.5,1.3 -8.55,0 z"
         id="path12" />
      <path
         d="m 647,747.9 c -0.95,-0.6 -5,-2.95 -9,-5.3 -4,-2.35 -9.4,-5.55 -12,-7.1 -5.65,-3.45 -11,-6.45 -17.75,-10 -2.75,-1.45 -7,-3.8 -9.5,-5.25 -2.45,-1.45 -8.5,-4.65 -13.4,-7.2 -8.7,-4.45 -11.85,-6.35 -11.85,-7.1 0,-0.2 2.4,-2.45 5.4,-5 2.95,-2.55 7.4,-6.5 9.85,-8.7 2.5,-2.25 6.45,-5.75 8.8,-7.8 5.9,-5.1 18.3,-16.15 30.15,-26.85 2.25,-2 4.55,-4 5.1,-4.4 1,-0.7 2.45,-0.05 22.25,9.95 37.05,18.7 47.5,24.2 47.8,25.15 0.1,0.35 -1.15,2.25 -2.75,4.25 -13.05,16.2 -16.05,20.05 -23.55,29.95 -2.6,3.45 -6.45,8.4 -8.55,11 -2.1,2.6 -4.9,6.3 -6.25,8.2 -3.05,4.25 -4.5,5.7 -6.7,6.6 -2.4,1 -5.95,0.8 -8.05,-0.4 z"
         id="path13" />
      <path
         d="m 845.5,730.95 c -0.95,-0.3 -4.8,-1.5 -8.5,-2.7 -7.85,-2.55 -25.75,-7.9 -29,-8.7 -6.2,-1.5 -14.25,-3.8 -18.75,-5.3 -5.15,-1.7 -9.05,-2.7 -14.75,-3.75 -1.8,-0.35 -3.6,-0.7 -4,-0.9 -0.4,-0.15 -0.9,-0.25 -1.05,-0.2 -0.15,0 0,-1.6 0.35,-3.55 1.6,-9.05 6.05,-39.4 8.45,-57.6 0.7,-5.2 1.7,-12.4 2.25,-16 1.15,-7.3 2.5,-20.2 2.5,-24.1 0,-1.4 0.25,-2.75 0.5,-2.9 0.5,-0.3 24.35,1.3 33.25,2.25 2.5,0.25 7,0.6 10,0.75 7.4,0.4 7.9,0.55 8.6,2.15 0.7,1.65 2.35,8.05 3.4,13.1 0.4,2.05 1.2,5.9 1.8,8.5 0.55,2.6 1.9,8.9 2.95,14 1.05,5.1 2.25,10.7 2.7,12.5 1.45,6.3 3.75,16.3 5.05,22.25 0.75,3.3 2.2,9.7 3.3,14.25 1.1,4.55 2.3,9.6 2.7,11.25 0.4,1.65 1.1,5.15 1.55,7.75 1.75,10.4 1.5,13.25 -1.6,16 -1.65,1.4 -1.95,1.5 -5.85,1.45 -2.25,0 -4.9,-0.25 -5.85,-0.5 z"
         id="path14" />
      <path
         d="m 881.4,559.35 c -5.25,-7.05 -9.8,-13.2 -14.95,-20.3 -6.95,-9.55 -20.85,-28.35 -26.45,-35.7 -4.2,-5.5 -5.2,-7.35 -4,-7.35 0.25,0 4.5,-2.75 9.35,-6.15 15.3,-10.65 17.8,-12.2 18.9,-11.9 0.55,0.15 2.6,1.25 4.5,2.35 5.35,3.15 24.5,13.1 39.25,20.35 14.55,7.15 18.9,9.75 21.4,12.55 1.4,1.6 1.6,2.2 1.6,4.5 0,2.4 -0.25,3.05 -2.15,5.6 -1.2,1.65 -4.95,5.3 -8.35,8.2 -6.6,5.55 -7.45,6.3 -16.5,14.55 -10.6,9.55 -17.75,15.8 -18.85,16.35 -1,0.55 -1.3,0.3 -3.75,-3.05 z"
         id="path15" />
      <path
         d="M 126.25,439.95 C 120.45,436.9 116.2,434.3 110,430 c -3.45,-2.35 -8.7,-5.85 -11.65,-7.75 -7.5,-4.7 -9.95,-7 -11.1,-10.4 -0.8,-2.45 -0.85,-3.1 -0.3,-5.5 0.65,-2.9 2.8,-5.65 5.5,-7.05 3.05,-1.6 19.4,-7.45 35.3,-12.6 4.7,-1.55 15.7,-5.15 24.5,-8.05 8.8,-2.85 18.95,-6.1 22.5,-7.15 3.6,-1.05 7.75,-2.4 9.25,-3 6.7,-2.7 6.35,-2.65 7.05,-0.6 0.35,1 1.35,3.45 2.2,5.35 1.65,3.5 4.4,9.55 8.15,18 3.3,7.35 5.2,12.4 4.75,12.75 -0.45,0.45 -40.45,20.5 -40.85,20.5 -0.35,0 -21.8,10.25 -29.4,14 -2.65,1.35 -5.25,2.55 -5.75,2.7 -0.5,0.15 -2.2,-0.4 -3.9,-1.25 z"
         id="path16" />
      <path
         d="m 825,362.75 c -4.5,-1.75 -8.3,-3.4 -8.4,-3.7 -0.15,-0.5 4.75,-10.1 6.45,-12.55 0.45,-0.7 1.95,-3.15 3.3,-5.5 1.4,-2.35 4.35,-7.25 6.6,-10.9 2.2,-3.7 4.05,-6.75 4.05,-6.85 0,-0.15 5.6,-9.75 8.6,-14.75 12,-19.85 13.4,-22.45 13.4,-24.9 0,-1.9 -2.45,-5.25 -4.65,-6.25 -2.35,-1.15 -4.65,-1.05 -11.65,0.35 -3.3,0.65 -8.75,1.7 -12.2,2.3 -3.45,0.6 -7.95,1.4 -10,1.8 -2.05,0.35 -5.75,1 -8.25,1.45 -2.45,0.45 -11.45,2.15 -20,3.8 -8.5,1.6 -19.2,3.65 -23.75,4.5 -11.5,2.15 -15.45,2.95 -17.75,3.45 -2.05,0.45 -10.55,2.1 -20.75,4 -3.15,0.6 -9.1,1.7 -13.25,2.5 -14.95,2.9 -39.05,7.55 -41.4,8 -4.3,0.9 -3.9,1.55 -6.05,-9.5 -1.25,-6.2 -1.8,-10.15 -1.5,-10.45 0.7,-0.65 10.45,-2.95 16.9,-4.05 3.2,-0.5 7.2,-1.3 8.9,-1.75 1.75,-0.4 5.95,-1.3 9.4,-1.95 7.6,-1.5 17.25,-3.55 29.25,-6.3 4.95,-1.15 10.9,-2.5 13.25,-3 2.35,-0.5 9.25,-2.05 15.4,-3.45 6.15,-1.45 12.1,-2.8 13.25,-3 1.15,-0.25 7.3,-1.6 13.6,-3.05 6.35,-1.45 15.2,-3.45 19.75,-4.5 4.55,-1 11.3,-2.65 15,-3.65 3.7,-0.95 9.9,-2.5 13.75,-3.35 11.3,-2.6 23.2,-5.45 27.25,-6.5 3.2,-0.8 7.65,-1.7 14.25,-2.8 2.25,-0.4 5.8,2.05 7.25,5.05 1.35,2.8 1.2,4.8 -0.75,9 -3.85,8.35 -4.8,10.4 -6.95,14.9 -1.25,2.75 -2.3,5.05 -2.3,5.15 0,0.1 -0.55,1.35 -1.15,2.8 -0.65,1.45 -1.85,4.25 -2.65,6.15 -0.8,1.95 -2.5,5.7 -3.8,8.4 -1.35,2.7 -2.95,6.2 -3.6,7.75 -0.7,1.55 -2.35,5.2 -3.7,8.1 -1.35,2.9 -3,6.4 -3.6,7.75 -0.65,1.4 -2,4.3 -3.1,6.5 -1.05,2.2 -3.1,6.6 -4.5,9.75 -1.4,3.15 -3.1,7 -3.8,8.5 -3.1,6.8 -9.25,20.9 -9.75,22.4 -0.3,0.95 -0.85,1.6 -1.3,1.55 -0.45,-0.05 -4.5,-1.45 -9.05,-3.2 z"
         id="path17" />
      <path
         d="m 515.45,277.65 c -0.3,-0.75 -1.05,-2.85 -1.7,-4.65 -0.6,-1.8 -2.75,-7.3 -4.7,-12.25 -1.95,-4.9 -3.55,-9.4 -3.55,-9.95 0,-0.6 3,-3.95 7.65,-8.5 7.6,-7.55 19.8,-20.4 26.8,-28.25 2.05,-2.3 4.8,-5.05 6.2,-6.1 2.25,-1.8 2.7,-1.95 5.5,-1.95 1.75,0 3.45,0.3 3.95,0.7 1.15,0.85 3.15,5.05 3.85,8.05 3.3,14.3 4.5,19.8 4.6,21.3 0.15,1.7 -0.05,1.95 -7.55,8.5 -7.05,6.1 -16.7,14.35 -26.95,22.9 -2.1,1.75 -6,5.1 -8.7,7.4 -4.85,4.2 -4.85,4.2 -5.4,2.8 z"
         id="path18" />
    </g>
  </g>
</svg>
