<?xml version="1.0" encoding="UTF-8" standalone="no"?>
<svg
   version="1.0"
   width="1024px"
   height="1024px"
   viewBox="0 0 1024 1024"
   preserveAspectRatio="xMidYMid meet"
   id="svg18"
   sodipodi:docname="currency.svg"
   inkscape:version="1.3.2 (091e20e, 2023-11-25)"
   xmlns:inkscape="http://www.inkscape.org/namespaces/inkscape"
   xmlns:sodipodi="http://sodipodi.sourceforge.net/DTD/sodipodi-0.dtd"
   xmlns="http://www.w3.org/2000/svg"
   xmlns:svg="http://www.w3.org/2000/svg">
  <defs
     id="defs18" />
  <sodipodi:namedview
     id="namedview18"
     pagecolor="#505050"
     bordercolor="#ffffff"
     borderopacity="1"
     inkscape:showpageshadow="0"
     inkscape:pageopacity="0"
     inkscape:pagecheckerboard="1"
     inkscape:deskcolor="#505050"
     inkscape:zoom="0.39306641"
     inkscape:cx="499.91552"
     inkscape:cy="568.60621"
     inkscape:window-width="1920"
     inkscape:window-height="1006"
     inkscape:window-x="1080"
     inkscape:window-y="290"
     inkscape:window-maximized="1"
     inkscape:current-layer="svg18" />
  <g
     id="g5"
     transform="matrix(0.07945769,0,0,0.07945769,-285.16957,-285.28394)">
    <path
       id="pnfxA8y4D"
       d="m 8575,16473 c -1069.9819,-30.64 -2112.8689,-272.262 -2925,-678 -426.8691,-213.262 -744.2108,-436.79 -1035,-729 -323.211,-324.79 -527.9179,-688.017 -607,-1078 -22.9179,-113.017 -23,-113 -23,-3953 0,-3840 -0.047,-3840.0095 23,-3954 124.9528,-618.0096 578.0741,-1181.8779 1300,-1620 1313.0741,-796.8779 3313.0275,-1076.1379 5122,-715 395.028,78.8621 843.889,211.2767 1200,354 409.889,164.2767 840.06,409.925 1150,657 114.06,90.925 357.192,328.8449 437,428 250.192,310.8452 394.235,622.1214 449,965 14.235,89.1255 17.849,226.0012 23,891 5.849,755.0012 6.818,788.1652 25,808 25.819,28.1666 49.917,26.5044 294,-14 448.918,-74.4958 714,-97.4352 1137,-98 326.001,-0.4352 516.904,10.6622 742,43 129.907,18.6626 167.396,34.2207 183,76 15.399,41.2295 12.699,7412.841 -3,7443 -22.302,42.844 -37.049,46.437 -154,33 -353.05,-40.563 -426,-45 -723,-45 -403,0 -684.923,26.432 -1148,109 -467.923,83.432 -963.778,210.744 -1897,488 -1338.779,397.745 -1999.999,538.02 -2750,586 -140.9987,9.02 -562.9809,10.36 -820,3 z m 840,-343 c 328,-24 621.015,-64.925 995,-140 433.015,-86.925 767.862,-175.47 1675,-442 644.862,-189.47 951.976,-275.096 1250,-348 817.976,-200.096 1506.983,-281.676 2108,-250 119.983,6.324 231.105,8.546 248,5 64.116,-13.457 59,268 59,-3428 0,-3364 -0.481,-3363.6186 -21,-3390 -28.487,-36.6263 -68.013,-44.7888 -289,-58 -515.013,-30.7888 -1162.026,31.8815 -1832,177 -378.026,81.8815 -683.009,159.967 -1468,379 -283.009,78.967 -591.99,164.0394 -686,189 -1114.99,296.0394 -1877.008,401.3961 -2774,383 -322.0084,-6.6039 -489.9263,-17.661 -765,-48 -1220.9273,-134.6611 -2298.4266,-530.4681 -3023,-1112 -126.4279,-101.4692 -291.8533,-261.1343 -442,-425 -46.8535,-51.1346 -89.0038,-92.2141 -95,-92 -22.0087,0.786 -36.3734,19.141 -45,56 -13.3755,57.1498 -13.3412,6084.035 0,6213 37.6588,364.035 221.4996,712.5 545,1036 264.5005,264.5 593.926,491.154 1000,686 758.926,364.154 1652.0108,566.753 2685,612 177.011,7.753 752,6 875,-3 z M 9303,8860 c 2119.035,-126.4197 3803.263,-1047.9477 4034,-2207 27.263,-136.9479 24.807,-387.1759 -5,-522 -56.194,-254.1795 -175.778,-494.1795 -359,-721 -148.778,-184.1797 -449.981,-446.029 -694,-603 -1294.981,-833.029 -3417.9681,-1104.8653 -5241,-673 -713.9681,169.1347 -1405.3803,472.4969 -1862,818 -332.3809,251.4974 -573.8716,526.0647 -724,824 -43.8716,87.0648 -98.2611,250.1527 -123,368 -30.2619,144.1569 -31.1033,369.0218 0,516 70.8967,335.0219 239.0357,626.9641 529,916 647.0358,644.9641 1772.0548,1100.5122 3082,1248 342.0553,38.5123 1018.0341,56.5804 1363,36 z m 3774,-825 c 298.899,-73.4137 285.935,-58.9987 281,-307 -3.065,-153.9987 -4.879,-171.1594 -22,-184 -10.881,-8.1609 -25,-14 -30,-14 -6,0 -42.026,34.9766 -81,78 -38.026,41.9766 -147.165,154.8349 -242,250 -192.166,192.8351 -208,222 -124,222 20,0 117.898,-20.4134 218,-45 z"
       sodipodi:nodetypes="sssssssssssssssssssssssssssssssssssssssssssssssssssssssssssssssssssss"
       style="fill:#000000;stroke:none" />
    <path
       id="p14m11bHrA"
       d="m 9955,15907 c -80.2415,-36.473 -95,-85 -95,-305 0,-165 2.0647,-180.967 23,-222 29.0648,-56.967 63.9933,-82.081 124,-87 61.993,-5.081 117.829,26.089 147,82 18.829,36.09 21,57 21,230 0,211 -8.059,243.918 -68,287 -36.059,25.918 -111.2363,33.529 -152,15 z"
       sodipodi:nodetypes="ssssssss"
       style="fill:#000000;stroke:none" />
    <path
       id="pBbpK7o27"
       d="m 9933,14899 c -62.0085,-39.987 -73,-82 -73,-289 0,-165 1.726,-188.131 20,-226 64.7266,-134.132 250.919,-109.978 290,37 6.919,26.022 9.785,106.996 8,213 -3.215,190.996 -12.185,218.724 -78,263 -44.186,29.725 -122.0085,31.013 -167,2 z"
       sodipodi:nodetypes="sssssss"
       style="fill:#000000;stroke:none" />
    <path
       id="p1454qpRWW"
       d="m 9955,13914 c -86.7996,-45.385 -97.0482,-81.001 -93,-321 2.9518,-175.001 5.3357,-193.748 24,-219 32.3384,-43.752 68.0355,-65.671 116,-71 60.037,-6.671 111.667,18.219 146,70 26.669,40.222 27,41 27,236 0,179 -1.713,199.149 -21,236 -36.714,70.15 -132.798,103.616 -199,69 z"
       sodipodi:nodetypes="ssssssss"
       style="fill:#000000;stroke:none" />
    <path
       id="p836yn8gU"
       d="m 9940,12908 c -72.2193,-49.683 -74.7863,-58.003 -78,-276 -2.7863,-189.003 -1.8245,-198.911 20,-242 17.1759,-33.911 35.0591,-50.879 70,-68 65.059,-31.879 119.247,-24.246 170,27 52.248,52.755 59.989,95 56,295 -3.011,151 -5.378,174.772 -24,206 -46.38,77.775 -145.218,105.318 -214,58 z"
       sodipodi:nodetypes="ssssssss"
       style="fill:#000000;stroke:none" />
    <path
       id="p1h2DUsv1"
       d="m 9950,11918 c -33.0855,-16.833 -51.0521,-34.973 -68,-68 -22.0521,-42.973 -23.0648,-53.001 -20,-242 2.9352,-181.001 4.8419,-199.116 24,-225 74.8424,-101.117 206.533,-96.725 268,7 18.536,31.28 21.039,54.999 24,206 2.039,103.999 -0.407,187.15 -7,212 -19.41,73.159 -88,132 -154,132 -12,0 -43.0845,-9.832 -67,-22 z"
       sodipodi:nodetypes="sssssssss"
       style="fill:#000000;stroke:none" />
    <path
       id="pUF6OY4yn"
       d="m 9944,10921 c -16.8395,-10.268 -41.7238,-34.192 -55,-53 -22.726,-32.195 -23.9162,-41.001 -27,-225 -2.9162,-174.001 -1.3528,-195.706 17,-237 45.6504,-102.713 163.797,-125.8 242,-47 52.798,53.201 61.382,94.986 57,296 -3.618,165.988 -4,173 -30,212 -46,69 -138.837,93.734 -204,54 z"
       sodipodi:nodetypes="ssssssss"
       style="fill:#000000;stroke:none" />
    <path
       id="pNnTMpUiC"
       d="m 9967,9936 c -49.2066,-17.4273 -61.6508,-30.1691 -86,-80 -18.6522,-38.1719 -21,-61 -21,-224 0,-201 5.2896,-225.689 59,-276 25.2924,-23.6916 41.9539,-30.571 88,-34 47.961,-3.5716 63.602,0.5696 92,20 66.61,45.5753 75.779,72.0036 79,264 1.779,106.0039 -1.164,186.9565 -8,213 -14.164,53.9573 -61.871,108.465 -108,121 -45.876,12.4663 -48.2,12.5751 -95,-4 z"
       sodipodi:nodetypes="ssssssssss"
       style="fill:#000000;stroke:none" />
    <path
       id="pCQD5Ffig"
       d="m 8590,7360 c -774.9824,-80.1706 -1313.0027,-451.9999 -1337,-925 -14.0027,-275.9999 141.9162,-526.1347 449,-717 704.9163,-438.1347 1938.9619,-356.9612 2468,162 205.962,202.0388 283.187,439.0477 221,682 -98.814,386.0478 -556.0264,685.8273 -1191,783 -123.0266,18.8273 -485.9822,27.8294 -610,15 z"
       sodipodi:nodetypes="sssssss"
       style="fill:#000000;stroke:none" />
    <path
       style="fill:#ffffff;stroke:none;stroke-width:46.9506;stroke-linecap:square;paint-order:stroke fill markers"
       d="m 434.03533,755.82783 c -7.01938,5.73238 -0.92128,18.81747 -3.17237,26.8339 -1.03253,202.98649 0.11799,405.98767 0.48894,608.96777 20.81161,73.8074 85.51045,125.6102 151.50109,158.6277 127.3086,59.5785 272.59024,73.5848 411.05464,56.3375 145.50687,-22.2945 282.63587,-80.758 427.79757,-104.678 49.4764,-8.376 100.576,-5.378 150.0388,-7.3709 4.7918,-52.3441 1.482,-105.2218 2.8678,-157.7636 -0.1886,-169.9593 1.8332,-339.96715 -1.5302,-509.89589 1.4253,-9.00487 -3.1376,-18.60264 -13.5707,-17.46764 -126.1126,-10.01658 -248.8027,28.06975 -368.9464,60.78162 -98.7463,28.05411 -199.85648,51.26337 -303.07903,50.59731 -123.3799,0.0437 -250.03381,-23.70994 -357.10892,-87.2087 -35.43797,-20.44377 -63.27187,-50.83481 -94.01203,-77.15451 -0.71645,-0.36404 -1.5105,-0.67301 -2.32919,-0.60656 z M 1002.203,931.67702 c 14.7733,0.7172 16.8897,17.07056 15.412,28.69753 0.1607,11.70649 2.2003,31.60773 -13.8834,33.46279 -11.57195,3.18312 -18.13426,-8.71267 -17.25063,-18.83734 0.54137,-14.85467 -6.17391,-41.15015 15.72203,-43.32298 z m -0.4124,99.30608 c 17.1822,1.6012 16.7939,24.4331 16.6149,37.403 0.6755,11.5209 -5.2476,27.5308 -19.56525,24.9417 -15.2765,-1.5797 -12.02134,-22.0769 -12.72629,-32.6862 -0.68656,-11.4929 1.27682,-28.3597 15.67664,-29.6585 z m 1.7372,99.505 c 18.5237,3.2276 13.1874,25.8229 13.8968,39.1445 3.6138,13.9082 -10.7777,30.946 -24.59658,21.3321 -10.79927,-11.3913 -5.31075,-29.9488 -6.45865,-44.2159 -0.37836,-9.0004 8.85647,-15.9285 17.15843,-16.2607 z m -1.2908,99.3498 c 17.6313,3.731 16.5539,27.2107 15.7657,41.3044 0.4567,11.132 -7.2907,23.8839 -20.11838,20.8462 -14.54025,-2.6793 -10.87115,-22.399 -11.77612,-33.0356 -1.29016,-12.1877 1.79719,-27.1004 16.1288,-29.115 z m -0.9656,100.3009 c 12.9415,-0.1796 17.7465,13.2713 15.7026,24.1702 -1.5005,10.9432 3.0615,24.884 -4.4206,33.9334 -8.7895,7.9549 -25.17606,3.5558 -25.30572,-9.3944 -0.249,-14.5004 -5.2363,-32.4555 4.16827,-44.6622 2.81066,-2.0448 6.32489,-3.9105 9.85545,-4.047 z m 0.951,99.8932 c 17.2987,1.4576 16.6322,23.8586 16.0423,36.6411 -0.1395,10.7941 -3.874,28.1582 -18.64805,24.1314 -16.58189,-1.6119 -13.08463,-22.9475 -13.67429,-34.5351 0.27145,-10.971 1.88984,-26.2446 16.28004,-26.2374 z m -1.019,100.1601 c 16.7077,-1.8014 16.1269,18.8623 15.6687,30.1777 -0.4562,11.7986 2.2679,31.8496 -15.2077,31.7158 -14.65834,-1.3843 -17.12035,-19.4178 -15.57163,-31.1772 0.51163,-10.7131 -1.57024,-32.1451 15.11063,-30.7163 z"
       id="path3"
       transform="scale(10)" />
    <path
       style="fill:#ffffff;stroke:none;stroke-width:46.9506;stroke-linecap:square;paint-order:stroke fill markers"
       d="m 874.53901,393.34724 c -122.50371,1.91271 -248.96485,28.60395 -351.28105,98.79659 -49.6282,34.62778 -93.73416,88.95269 -92.24088,152.40683 3.45328,66.41071 53.9986,119.11376 106.97302,153.49379 90.45396,56.66857 197.77894,82.43587 303.61996,87.39324 82.8642,2.27319 166.74584,-2.35414 246.60814,-26.15004 85.5203,-24.51277 172.8071,-65.9951 223.617,-142.14382 30.8098,-45.77988 30.4125,-108.8763 -0.33,-154.63413 C 1264.1015,489.63222 1181.2193,449.76893 1100.6745,424.76223 1027.5071,402.70597 950.89545,392.7141 874.53901,393.34724 Z m 8.6908,152.08657 c 46.91372,-2.79572 96.32614,9.21923 131.90509,40.91615 28.6478,23.48951 34.9065,70.21245 9.0693,98.02989 -37.3283,40.60122 -95.83049,54.34904 -149.24201,50.91416 -52.69342,-0.57518 -113.1132,-15.74601 -141.6693,-64.26335 -19.51672,-33.40412 -0.68283,-74.68186 29.60502,-94.38082 34.16353,-24.68169 77.27511,-33.14834 118.89069,-31.21132 l 1.43637,-0.005 z"
       id="path4"
       transform="scale(10)" />
    <path
       style="fill:#ffffff;stroke:none;stroke-width:16.5995;stroke-linecap:square;paint-order:stroke fill markers"
       d="m 1331.4902,753.17097 c -6.5976,3.05906 -10.8226,9.82799 -16.237,14.54126 -11.2628,12.19817 -23.9486,23.27082 -33.8623,36.62688 -2.3678,3.72855 3.0249,4.78392 5.6272,3.9665 14.5959,-2.47185 29.1299,-6.04229 43.1167,-10.88385 8.2006,-4.42206 5.9796,-15.319 6.3341,-22.98749 -0.7054,-6.69392 0.995,-14.55815 -2.9354,-20.43637 -0.5464,-0.51546 -1.2689,-0.912 -2.0433,-0.82693 z"
       id="path5"
       transform="scale(10)" />
  </g>
</svg>
